<?xml version="1.0" encoding="UTF-8" standalone="no"?>
<svg
   xmlns:dc="http://purl.org/dc/elements/1.1/"
   xmlns:cc="http://creativecommons.org/ns#"
   xmlns:rdf="http://www.w3.org/1999/02/22-rdf-syntax-ns#"
   xmlns:svg="http://www.w3.org/2000/svg"
   xmlns="http://www.w3.org/2000/svg"
   xmlns:xlink="http://www.w3.org/1999/xlink"
   xmlns:sodipodi="http://sodipodi.sourceforge.net/DTD/sodipodi-0.dtd"
   xmlns:inkscape="http://www.inkscape.org/namespaces/inkscape"
   id="svg"
   width="1485"
   height="319"
   version="1.1"
   viewBox="0 0 1485 319.00002"
   sodipodi:docname="banner.svg"
   inkscape:version="0.92.3 (2405546, 2018-03-11)">
  <metadata
     id="metadata198">
    <rdf:RDF>
      <cc:Work
         rdf:about="">
        <dc:format>image/svg+xml</dc:format>
        <dc:type
           rdf:resource="http://purl.org/dc/dcmitype/StillImage" />
        <dc:title></dc:title>
      </cc:Work>
    </rdf:RDF>
  </metadata>
  <sodipodi:namedview
     pagecolor="#ffffff"
     bordercolor="#666666"
     borderopacity="1"
     objecttolerance="10"
     gridtolerance="10"
     guidetolerance="10"
     inkscape:pageopacity="0"
     inkscape:pageshadow="2"
     inkscape:window-width="1360"
     inkscape:window-height="671"
     id="namedview196"
     showgrid="false"
     inkscape:zoom="0.85333333"
     inkscape:cx="1116.9233"
     inkscape:cy="69.52584"
     inkscape:window-x="0"
     inkscape:window-y="27"
     inkscape:window-maximized="1"
     inkscape:current-layer="svg" />
  <defs
     id="defs148">
    <linearGradient
       id="linearGradient5399">
      <stop
         style="stop-color:#382424"
         offset="0"
         id="stop136" />
      <stop
         style="stop-color:#382424;stop-opacity:0"
         offset="1"
         id="stop138" />
    </linearGradient>
    <linearGradient
       id="linearGradient5401"
       x1="280.32999"
       x2="281.04999"
       y1="43.262001"
       y2="94.557999"
       gradientUnits="userSpaceOnUse"
       xlink:href="#linearGradient5399" />
    <linearGradient
       id="linearGradient5409"
       x1="167.67999"
       x2="167.25999"
       y1="42.819"
       y2="94.433998"
       gradientUnits="userSpaceOnUse">
      <stop
         style="stop-color:#a80000"
         offset="0"
         id="stop142" />
      <stop
         style="stop-color:#a80000;stop-opacity:0"
         offset="1"
         id="stop144" />
    </linearGradient>
    <linearGradient
       id="linearGradient5411"
       x1="335.78"
       x2="336.29001"
       y1="46.145"
       y2="94.666"
       gradientUnits="userSpaceOnUse"
       xlink:href="#linearGradient5399" />
  </defs>
  <g
     id="svgg"
     transform="translate(-8.4794707,36.691864)">
    <g
       transform="matrix(1.0007,0,0,1.0016,36.853,-8.3517)"
       style="paint-order:stroke fill markers"
       id="g192">
      <text
         transform="scale(1.0005,0.99955)"
         x="117.69681"
         y="117.47514"
         style="font-size:39.95299911px;line-height:1.25;font-family:Shrikhand;letter-spacing:0px;word-spacing:0px;fill:#000000;stroke-width:0.99882001"
         xml:space="preserve"
         id="text152"><tspan
           x="117.69681"
           y="150.58418"
           style="font-family:Shrikhand;stroke-width:0.99882001"
           id="tspan150" /></text>
      <text
         transform="scale(1.0005,0.99955)"
         x="146.50314"
         y="121.4033"
         style="font-size:39.95299911px;line-height:1.25;font-family:Shrikhand;letter-spacing:0px;word-spacing:0px;fill:#000000;stroke-width:0.99882001"
         xml:space="preserve"
         id="text156"><tspan
           x="146.50314"
           y="154.51234"
           style="font-family:Shrikhand;stroke-width:0.99882001"
           id="tspan154" /></text>
      <g
         transform="matrix(1.1184,0,0,1.1184,-75.062,115)"
         id="g190">
        <g
           transform="matrix(0.90948,0,0,0.90796,38.332,14.012)"
           id="g174">
          <path
             d="m 215.51,-125.76 c 0.514,0.064 1.355,0.064 1.869,0 0.514,-0.064 0.094,-0.116 -0.934,-0.116 -1.029,0 -1.449,0.052 -0.935,0.116 m -57.153,96.48 c -1.345,1.767 -3.054,3.995 -3.8,4.952 -0.745,0.956 -3.721,4.796 -6.614,8.532 -2.892,3.737 -7.588,9.801 -10.434,13.477 -2.847,3.675 -5.684,7.347 -6.305,8.159 -0.621,0.813 -3.09,4.001 -5.486,7.085 -2.397,3.084 -4.992,6.448 -5.766,7.476 -0.775,1.028 -1.541,2.017 -1.703,2.197 -0.162,0.18 -0.776,0.956 -1.365,1.725 -0.588,0.769 -1.826,2.369 -2.751,3.555 -1.932,2.477 -5.365,6.955 -6.944,9.058 -1.771,2.358 -1.974,2.885 -5.76,14.954 -0.446,1.423 -1.481,4.723 -2.299,7.332 -0.819,2.61 -2.204,7.01 -3.079,9.778 -0.875,2.767 -1.845,5.873 -2.156,6.901 -0.311,1.028 -0.74,2.387 -0.954,3.019 -0.214,0.633 -0.866,2.704 -1.449,4.601 -0.584,1.898 -1.63,5.188 -2.325,7.31 -1.426,4.357 -1.506,4.912 -0.71,4.912 0.371,0 0.83,-0.5 1.388,-1.51 0.458,-0.83 1.201,-2.157 1.65,-2.947 1.054,-1.855 1.779,-3.139 2.68,-4.745 0.399,-0.712 0.981,-1.747 1.294,-2.301 0.312,-0.553 0.895,-1.588 1.294,-2.3 0.685,-1.223 1.059,-1.887 2.309,-4.098 0.29,-0.514 0.959,-1.711 1.485,-2.66 0.526,-0.949 1.194,-2.146 1.484,-2.66 0.291,-0.514 0.802,-1.42 1.136,-2.013 0.334,-0.593 1.092,-1.919 1.683,-2.947 0.592,-1.028 1.467,-2.581 1.944,-3.451 0.477,-0.87 1.355,-2.423 1.95,-3.451 0.596,-1.028 1.539,-2.71 2.095,-3.738 0.557,-1.028 1.251,-2.213 1.543,-2.633 0.291,-0.419 0.53,-0.83 0.53,-0.913 0,-0.082 0.797,-1.55 1.771,-3.262 0.974,-1.712 2.16,-3.825 2.636,-4.695 0.476,-0.869 1.167,-2.064 1.536,-2.654 0.369,-0.59 0.671,-1.134 0.671,-1.209 0,-0.076 0.405,-0.822 0.899,-1.66 0.495,-0.837 1.421,-2.492 2.059,-3.679 0.638,-1.186 1.398,-2.5 1.689,-2.92 0.291,-0.419 0.529,-0.829 0.529,-0.91 0,-0.082 0.582,-1.133 1.294,-2.337 0.712,-1.204 1.294,-2.252 1.294,-2.33 0,-0.077 0.347,-0.688 0.771,-1.357 1.069,-1.685 2.969,-5.138 3.162,-5.746 0.088,-0.277 0.274,-0.503 0.414,-0.503 0.14,0 0.254,-0.117 0.254,-0.26 0,-0.143 0.469,-1.081 1.042,-2.085 0.573,-1.004 1.263,-2.213 1.534,-2.687 0.271,-0.475 0.837,-1.478 1.259,-2.229 0.421,-0.751 1.111,-1.981 1.532,-2.732 0.422,-0.751 1.022,-1.819 1.335,-2.372 0.811,-1.437 1.928,-3.431 2.578,-4.601 0.307,-0.554 0.655,-1.136 0.772,-1.294 0.117,-0.159 0.734,-1.258 1.37,-2.445 0.636,-1.186 1.417,-2.609 1.735,-3.163 1.631,-2.842 5.428,-9.541 6.193,-10.927 0.481,-0.87 1.647,-2.941 2.591,-4.601 0.944,-1.661 2.104,-3.731 2.576,-4.601 0.472,-0.87 1.035,-1.865 1.25,-2.211 1.459,-2.347 3.595,-6.416 3.364,-6.407 -0.127,0.005 -1.331,1.454 -2.675,3.221 m 153.72,54.067 c -0.469,7.383 -0.662,13.895 -0.43,14.506 0.136,0.357 1.043,2.044 2.016,3.748 2.14,3.75 2.731,4.805 4.147,7.411 0.602,1.107 1.333,2.356 1.625,2.776 0.292,0.42 0.53,0.828 0.53,0.907 0,0.079 0.469,0.965 1.042,1.968 1.116,1.956 2.178,3.831 3.037,5.366 0.293,0.524 0.709,1.236 0.924,1.582 0.215,0.346 0.777,1.34 1.248,2.21 0.472,0.87 2.904,5.205 5.404,9.634 2.5,4.428 5.346,9.475 6.325,11.215 0.979,1.739 2.057,3.648 2.396,4.241 1.549,2.711 1.88,3.303 2.41,4.314 l 0.565,1.078 h 29.054 l -0.816,-1.078 c -0.859,-1.134 -3.696,-4.662 -9.274,-11.529 -1.843,-2.269 -3.674,-4.554 -4.069,-5.078 -0.852,-1.13 -7.532,-9.426 -7.758,-9.634 -0.086,-0.079 -1.764,-2.149 -3.729,-4.601 -1.966,-2.451 -4.876,-6.074 -6.468,-8.051 -1.591,-1.977 -3.087,-3.84 -3.325,-4.139 -0.237,-0.3 -0.764,-0.947 -1.172,-1.438 -0.407,-0.491 -2.667,-3.287 -5.021,-6.213 -2.355,-2.926 -6.098,-7.563 -8.318,-10.304 -2.22,-2.741 -4.295,-5.34 -4.612,-5.775 -0.607,-0.835 -3.041,-3.806 -3.318,-4.051 -0.089,-0.079 -0.527,-0.629 -0.972,-1.222 -1.151,-1.532 -1.212,-1.441 -1.441,2.157"
             style="fill:url(#linearGradient5411);fill-rule:evenodd;paint-order:stroke fill markers"
             id="path158"
             inkscape:connector-curvature="0" />
          <path
             d="m 215.65,-125.47 c 0.435,0.066 1.146,0.066 1.581,0 0.435,-0.065 0.079,-0.119 -0.79,-0.119 -0.87,0 -1.226,0.054 -0.791,0.119 m 10.28,34.141 c 0,0.881 0.164,0.953 0.371,0.161 0.083,-0.316 0.033,-0.647 -0.11,-0.736 -0.144,-0.088 -0.261,0.171 -0.261,0.575 m 1.462,0.858 c 7.395,7.519 10.126,10.241 10.2,10.167 0.109,-0.109 -9.951,-10.289 -10.169,-10.289 -0.083,0 -0.097,0.055 -0.031,0.122 m -1.677,1.46 c 0.003,0.632 0.062,0.857 0.131,0.5 0.069,-0.358 0.066,-0.876 -0.006,-1.151 -0.072,-0.275 -0.128,0.018 -0.125,0.651 m -0.304,4.201 c -0.031,0.887 -0.119,2.246 -0.195,3.02 l -0.14,1.406 0.294,-1.151 c 0.162,-0.632 0.25,-1.991 0.196,-3.019 l -0.098,-1.869 -0.057,1.613 m 14.322,6.96 c 0,0.049 0.421,0.47 0.935,0.934 l 0.934,0.845 -0.844,-0.935 c -0.788,-0.871 -1.025,-1.066 -1.025,-0.844 m -14.9,1.236 c -0.029,0.65 -0.116,1.814 -0.193,2.588 l -0.139,1.406 0.295,-1.15 c 0.162,-0.633 0.249,-1.798 0.192,-2.588 -0.095,-1.343 -0.105,-1.36 -0.155,-0.256 m 17.488,1.352 c 0,0.049 0.421,0.47 0.935,0.935 l 0.934,0.844 -0.844,-0.934 c -0.788,-0.872 -1.025,-1.067 -1.025,-0.845 m -26.288,0.958 c -0.1,0.259 -0.113,0.54 -0.031,0.623 0.083,0.082 0.151,-0.015 0.151,-0.216 0,-0.202 0.187,-0.294 0.417,-0.206 0.278,0.106 0.363,0.021 0.256,-0.257 -0.212,-0.553 -0.569,-0.528 -0.793,0.056 m 29.439,2.187 c 0.705,0.751 1.32,1.366 1.366,1.366 0.216,0 -0.012,-0.258 -1.282,-1.45 l -1.366,-1.282 1.282,1.366 m -109.98,3.954 c 0.778,0.791 1.48,1.438 1.56,1.438 0.079,0 -0.494,-0.647 -1.273,-1.438 -0.779,-0.791 -1.481,-1.438 -1.56,-1.438 -0.079,0 0.494,0.647 1.273,1.438 m 88.566,1.514 c -0.11,1.33 -0.149,2.666 -0.085,2.968 0.064,0.303 0.211,-0.729 0.327,-2.293 0.115,-1.563 0.153,-2.899 0.085,-2.968 -0.069,-0.068 -0.216,0.964 -0.327,2.293 m -89.653,-0.076 c 0.088,0.87 0.207,1.635 0.264,1.701 0.214,0.248 0.053,-2.157 -0.181,-2.708 -0.152,-0.358 -0.184,0.023 -0.083,1.007 m 115.39,-0.976 c 0,0.111 0.616,0.861 1.368,1.667 0.753,0.806 1.603,1.789 1.889,2.184 0.495,0.685 0.495,0.676 -0.003,-0.187 -0.556,-0.965 -3.254,-4.003 -3.254,-3.664 m -29.044,1.371 c 0,0.31 1.142,2.48 1.306,2.48 0.079,0 -0.134,-0.549 -0.473,-1.222 -0.666,-1.322 -0.833,-1.573 -0.833,-1.258 m -85.66,4.805 c 0.019,0.698 0.136,1.658 0.261,2.133 0.138,0.523 0.166,0.07 0.071,-1.151 -0.178,-2.285 -0.383,-2.892 -0.332,-0.982 m 8.503,1.701 c 1.452,1.503 3.641,3.767 4.866,5.033 1.224,1.265 1.953,1.912 1.62,1.438 -0.333,-0.475 -2.522,-2.739 -4.866,-5.033 -2.343,-2.293 -3.072,-2.94 -1.62,-1.438 m 79.17,-2.426 c 0,0.215 0.771,0.989 0.986,0.989 0.366,0 0.129,-0.459 -0.411,-0.796 -0.316,-0.198 -0.575,-0.285 -0.575,-0.193 m 32.788,2.792 c -0.003,0.122 0.299,0.704 0.673,1.294 0.373,0.59 1.025,1.687 1.45,2.438 0.424,0.751 0.838,1.366 0.919,1.366 0.19,0 -1.881,-3.81 -2.538,-4.67 -0.274,-0.357 -0.5,-0.55 -0.504,-0.428 m -119.86,2.941 c 0.007,0.317 0.112,0.964 0.233,1.438 l 0.219,0.863 0.014,-0.863 c 0.008,-0.474 -0.097,-1.121 -0.233,-1.438 l -0.247,-0.575 0.014,0.575 m 73.272,2.591 c -0.198,0.239 -0.463,1.242 -0.587,2.229 -0.125,0.987 -0.386,2.765 -0.581,3.951 -0.8,4.876 -0.875,4.796 3.758,4.045 1.186,-0.193 2.868,-0.462 3.738,-0.599 0.87,-0.138 1.853,-0.332 2.185,-0.432 0.672,-0.203 0.67,-0.206 1.979,3.744 0.419,1.265 0.867,2.559 0.994,2.875 0.128,0.317 0.851,2.517 1.608,4.889 2.454,7.694 2.756,8.618 3.007,9.202 0.136,0.316 0.338,0.963 0.449,1.438 0.111,0.474 0.258,0.711 0.326,0.525 0.069,-0.186 -0.444,-2.062 -1.139,-4.17 -0.695,-2.107 -2.352,-7.163 -3.683,-11.233 -2.621,-8.024 -2.512,-7.85 -4.697,-7.446 -0.803,0.149 -2.431,0.418 -3.617,0.598 -1.186,0.18 -2.779,0.465 -3.539,0.633 -1.721,0.381 -1.756,0.343 -1.384,-1.53 0.167,-0.843 0.509,-2.956 0.76,-4.696 0.251,-1.739 0.576,-3.454 0.722,-3.81 0.309,-0.753 0.208,-0.824 -0.299,-0.213 m -81.729,5.533 c 0.066,3.124 0.227,7.103 0.359,8.843 0.163,2.147 0.192,0.568 0.092,-4.913 -0.082,-4.442 -0.17,-8.324 -0.196,-8.627 -0.037,-0.424 0.117,-0.536 0.671,-0.484 0.647,0.061 0.661,0.041 0.144,-0.195 -1.187,-0.542 -1.194,-0.508 -1.07,5.376 m 131.48,-5.587 c 0,0.113 0.324,0.719 0.719,1.345 0.396,0.627 0.722,1.239 0.725,1.361 0.004,0.121 0.27,0.545 0.593,0.94 0.322,0.395 0.107,-0.187 -0.477,-1.294 -1.048,-1.986 -1.56,-2.757 -1.56,-2.352 m -122.44,2.452 c 0.019,0.725 0.089,0.85 0.283,0.503 0.155,-0.277 0.145,-0.659 -0.026,-0.963 -0.228,-0.404 -0.278,-0.314 -0.257,0.46 m 18.341,3.063 c 1.813,1.819 3.362,3.307 3.441,3.307 0.079,0 -1.34,-1.488 -3.154,-3.307 -1.814,-1.819 -3.362,-3.307 -3.441,-3.307 -0.079,0 1.34,1.488 3.154,3.307 m 106.68,-0.948 c 0,0.273 2.02,3.791 2.36,4.111 0.168,0.158 -0.185,-0.618 -0.784,-1.725 -1.062,-1.961 -1.576,-2.739 -1.576,-2.386 m 60.276,3.464 -0.524,0.935 0.703,-0.839 c 0.47,-0.56 0.772,-0.728 0.91,-0.504 0.113,0.183 0.49,0.475 0.837,0.648 0.43,0.215 0.357,0.081 -0.232,-0.42 -1.093,-0.93 -1.07,-0.932 -1.694,0.18 m -163.51,1.137 c 0,0.279 2.024,3.796 2.366,4.111 0.172,0.158 -0.178,-0.618 -0.778,-1.725 -1.052,-1.944 -1.588,-2.748 -1.588,-2.386 m 106.58,1.444 c 0.452,0.905 0.925,1.649 1.05,1.653 0.125,0.004 -0.123,-0.607 -0.551,-1.358 -1.147,-2.013 -1.445,-2.189 -0.499,-0.295 m 61.642,-0.338 c 0.997,0.677 1.565,0.874 0.862,0.299 -0.395,-0.323 -0.848,-0.589 -1.006,-0.59 -0.158,-10e-4 -0.094,0.13 0.144,0.291 m 1.84,1.09 c 0.115,0.185 0.944,0.831 1.844,1.435 3.219,2.163 3.172,1.886 -0.064,-0.38 -1.094,-0.766 -1.894,-1.24 -1.78,-1.055 m -167.48,2.467 c 0,0.066 0.587,1.113 1.305,2.326 l 1.305,2.207 -1.459,2.706 c -1.673,3.104 -1.747,3.669 -0.099,0.764 2.057,-3.627 2.012,-3.116 0.509,-5.768 -1.188,-2.097 -1.561,-2.631 -1.561,-2.235 m 105.82,-0.028 c 0,0.113 0.324,0.719 0.719,1.345 0.396,0.627 0.719,1.271 0.719,1.433 0,0.161 0.135,0.293 0.3,0.293 0.165,0 -0.051,-0.615 -0.479,-1.366 -0.833,-1.462 -1.259,-2.039 -1.259,-1.705 m 66.428,1.072 c 0.997,0.677 1.565,0.874 0.862,0.299 -0.395,-0.323 -0.848,-0.589 -1.006,-0.59 -0.158,-10e-4 -0.094,0.13 0.144,0.291 m 1.725,0.968 c 0,0.076 0.831,0.732 1.847,1.457 1.314,0.938 2.103,1.771 2.734,2.89 0.488,0.865 0.957,1.572 1.041,1.572 0.179,0 -1.235,-2.528 -1.77,-3.165 -0.429,-0.51 -3.852,-2.958 -3.852,-2.754 m -206.7,4.085 c -0.051,1.415 -0.124,1.539 -1.85,3.129 -0.989,0.911 -2.769,2.578 -3.957,3.703 -1.188,1.126 -3.002,2.824 -4.032,3.773 -8.485,7.821 -10.666,10.031 -10.51,10.651 0.148,0.588 0.9,2.222 4.762,10.341 4.096,8.611 3.755,7.225 2.631,10.686 -0.454,1.398 -1.114,3.513 -1.467,4.699 -0.353,1.186 -0.741,2.415 -0.862,2.732 -0.122,0.316 -0.708,2.128 -1.304,4.026 -0.595,1.897 -1.373,4.356 -1.728,5.463 -0.355,1.107 -0.933,2.984 -1.285,4.17 -0.351,1.186 -0.742,2.415 -0.868,2.732 -0.499,1.248 -1.206,3.922 -1.073,4.055 0.115,0.115 1.671,-4.506 2.817,-8.369 0.141,-0.474 0.507,-1.639 0.813,-2.588 0.306,-0.949 1.226,-3.86 2.044,-6.47 1.479,-4.716 1.816,-5.773 3.268,-10.243 1.187,-3.656 1.818,-1.735 -5.824,-17.737 -0.966,-2.024 -1.757,-3.735 -1.757,-3.801 0,-0.114 2.191,-2.22 7.322,-7.04 1.263,-1.186 2.494,-2.351 2.735,-2.588 0.433,-0.426 7.589,-7.084 9.44,-8.784 0.893,-0.82 0.947,-0.975 0.846,-2.444 l -0.107,-1.569 -0.054,1.473 m 187.16,-0.198 c -0.768,1.504 -1.001,1.603 -2.134,0.902 -0.53,-0.327 -1.045,-0.595 -1.145,-0.595 -0.246,0 -0.181,2.65 0.112,4.601 0.204,1.36 0.229,1.189 0.174,-1.222 -0.067,-2.955 -0.007,-3.08 1.125,-2.338 0.588,0.385 0.788,0.401 1.161,0.091 0.469,-0.389 1.68,-2.57 1.427,-2.57 -0.079,0 -0.403,0.509 -0.72,1.131 m -42.54,4.92 c 0.497,0.956 0.961,1.681 1.031,1.611 0.135,-0.135 -1.605,-3.348 -1.813,-3.348 -0.068,0 0.284,0.782 0.782,1.737 m 68.985,-0.3 c 0.323,0.633 0.652,1.151 0.731,1.151 0.079,0 -0.12,-0.518 -0.443,-1.151 -0.323,-0.632 -0.652,-1.15 -0.731,-1.15 -0.079,0 0.121,0.518 0.443,1.15 m -182.87,2.385 c -0.53,0.982 -0.828,1.656 -0.662,1.498 0.421,-0.4 1.864,-3.046 1.733,-3.177 -0.059,-0.058 -0.541,0.697 -1.071,1.679 m 184.16,-0.156 c 0.25,0.514 0.517,0.935 0.592,0.935 0.286,0 0.102,-0.458 -0.462,-1.151 l -0.587,-0.718 0.457,0.934 m -68.825,0.533 c 0.258,0.3 0.681,0.965 0.941,1.478 0.37,0.73 6.345,8.44 7.782,10.04 0.164,0.183 1.684,2.059 3.377,4.17 1.693,2.11 5.64,7.017 8.77,10.903 3.131,3.887 6.081,7.565 6.555,8.174 0.475,0.609 1.198,1.505 1.607,1.991 0.903,1.074 5.541,6.812 7.524,9.308 1.713,2.157 1.693,2.167 1.945,-1 0.205,-2.583 0.054,-3.236 -1.578,-6.848 -0.215,-0.474 -0.87,-2.027 -1.457,-3.451 -1.126,-2.731 -5.1,-12.15 -5.642,-13.371 -0.175,-0.396 -0.439,-0.984 -0.586,-1.309 -0.285,-0.63 0.34,-1.937 4.845,-10.136 3.579,-6.512 4.447,-8.407 4.336,-9.467 l -0.113,-1.087 -0.049,1.07 c -0.026,0.588 -0.286,1.494 -0.576,2.013 -0.291,0.519 -1.347,2.496 -2.348,4.394 -1,1.898 -2.075,3.904 -2.388,4.457 -2.8,4.953 -4.226,7.716 -4.226,8.19 0,0.26 0.372,1.274 0.827,2.252 0.455,0.979 1.115,2.491 1.468,3.361 0.778,1.919 1.189,2.887 1.985,4.67 0.335,0.749 0.609,1.425 0.609,1.502 0,0.076 0.339,0.886 0.753,1.8 1.213,2.674 1.547,3.463 1.547,3.649 0,0.097 0.259,0.756 0.576,1.466 0.316,0.71 0.834,1.872 1.15,2.582 0.579,1.299 0.863,6.186 0.359,6.186 -0.118,0 -0.554,-0.421 -0.968,-0.935 -0.413,-0.514 -1.951,-2.422 -3.417,-4.241 -1.466,-1.819 -3.069,-3.812 -3.561,-4.429 -0.493,-0.616 -1.23,-1.522 -1.638,-2.013 -0.779,-0.937 -4.721,-5.828 -9.757,-12.106 -1.649,-2.056 -3.074,-3.803 -3.167,-3.882 -0.092,-0.079 -0.548,-0.662 -1.014,-1.294 -0.465,-0.633 -0.911,-1.215 -0.991,-1.294 -0.08,-0.079 -0.658,-0.791 -1.286,-1.582 -0.627,-0.791 -1.214,-1.502 -1.303,-1.581 -1.049,-0.926 -9.098,-11.355 -9.974,-12.924 -0.303,-0.541 -0.738,-1.045 -0.968,-1.118 -0.332,-0.106 -0.322,-0.022 0.051,0.412 m 70.283,1.983 c 0.419,0.791 0.893,1.567 1.054,1.726 0.418,0.411 -0.783,-1.899 -1.346,-2.588 -0.258,-0.317 -0.127,0.071 0.292,0.862 m -187.24,0.477 c -0.272,0.528 -0.685,1.252 -0.917,1.608 -0.27,0.415 -0.307,0.647 -0.101,0.647 0.177,0 0.321,-0.132 0.321,-0.293 0,-0.161 0.333,-0.821 0.74,-1.465 0.406,-0.645 0.675,-1.236 0.596,-1.315 -0.079,-0.079 -0.366,0.289 -0.639,0.818 m 188.52,1.807 c 0,0.213 1.199,2.173 1.329,2.173 0.066,0 -0.143,-0.517 -0.466,-1.15 -0.515,-1.009 -0.863,-1.422 -0.863,-1.023 m -119.89,2.03 c -0.032,0.316 -0.186,2.451 -0.342,4.744 -0.155,2.294 -0.398,5.788 -0.538,7.765 -0.141,1.977 -0.391,5.6 -0.557,8.051 -0.587,8.702 -0.473,8.166 -1.997,9.397 -0.736,0.594 -1.403,1.149 -1.482,1.234 -0.079,0.084 -0.791,0.666 -1.582,1.294 -0.79,0.627 -1.502,1.214 -1.581,1.304 -0.079,0.09 -1.917,1.618 -4.084,3.395 -2.167,1.777 -4.108,3.39 -4.314,3.584 -0.205,0.194 -1.02,0.869 -1.811,1.499 -3.011,2.399 -2.658,0.464 -2.893,15.892 l -0.206,13.588 0.831,-0.005 c 0.457,-0.002 1.025,-0.136 1.262,-0.298 0.312,-0.213 0.139,-0.243 -0.626,-0.111 l -1.057,0.182 0.134,-12.034 c 0.073,-6.618 0.201,-12.705 0.285,-13.525 l 0.151,-1.492 4.798,-3.988 c 2.639,-2.192 6.819,-5.635 9.289,-7.649 l 4.491,-3.662 0.2,-1.642 c 0.11,-0.904 0.324,-3.454 0.474,-5.669 0.527,-7.738 0.794,-11.537 1.13,-16.103 0.187,-2.531 0.282,-4.989 0.212,-5.464 -0.077,-0.519 -0.152,-0.633 -0.187,-0.287 m -70.852,0.052 c -1.002,1.664 -1.601,2.967 -1.363,2.967 0.163,0 0.297,-0.132 0.297,-0.293 0,-0.161 0.333,-0.821 0.739,-1.465 0.407,-0.645 0.679,-1.233 0.604,-1.308 -0.074,-0.074 -0.199,-0.03 -0.277,0.099 m 192.21,0.523 c 0.236,0.628 2.323,4.169 2.458,4.169 0.177,0 -1.886,-3.771 -2.281,-4.169 -0.19,-0.192 -0.249,-0.192 -0.177,0 m -195.18,4.817 c -0.264,0.514 -0.67,1.258 -0.9,1.653 -0.402,0.69 -0.399,0.696 0.065,0.144 0.567,-0.674 1.666,-2.732 1.459,-2.732 -0.078,0 -0.359,0.42 -0.624,0.935 m 197.77,-0.216 c 0.236,0.628 2.323,4.17 2.458,4.17 0.177,0 -1.886,-3.772 -2.281,-4.17 -0.19,-0.192 -0.249,-0.192 -0.177,0 m -201.2,6.254 -0.456,0.935 0.586,-0.719 c 0.564,-0.692 0.748,-1.15 0.462,-1.15 -0.075,0 -0.341,0.42 -0.592,0.934 m 204.32,-0.8 c 0,0.3 1.155,2.166 1.341,2.166 0.079,0 -0.148,-0.485 -0.504,-1.078 -0.795,-1.321 -0.837,-1.376 -0.837,-1.088 m -205.96,3.676 c -0.659,1.012 -1.468,2.692 -1.141,2.372 0.363,-0.355 1.848,-3.019 1.683,-3.019 -0.066,0 -0.31,0.291 -0.542,0.647 m 208.5,0.935 c 0.322,0.632 0.797,1.409 1.056,1.725 0.26,0.316 0.119,-0.072 -0.312,-0.863 -0.965,-1.77 -1.547,-2.445 -0.744,-0.862 m -210.72,2.991 c -0.331,0.648 -0.546,1.178 -0.48,1.178 0.216,0 1.356,-2.081 1.216,-2.221 -0.074,-0.074 -0.405,0.395 -0.736,1.043 m 213.3,1.61 c 0.322,0.632 0.796,1.409 1.054,1.725 0.259,0.316 0.128,-0.072 -0.291,-0.863 -0.419,-0.791 -0.893,-1.567 -1.054,-1.725 -0.161,-0.158 -0.03,0.23 0.291,0.863 m -214.62,0.79 -0.456,0.935 0.586,-0.719 c 0.564,-0.692 0.748,-1.15 0.462,-1.15 -0.075,0 -0.341,0.42 -0.592,0.934 m -1.295,2.301 c -0.577,1.182 -0.578,1.198 -0.021,0.503 0.536,-0.669 0.983,-1.725 0.73,-1.725 -0.061,0 -0.38,0.55 -0.709,1.222 m 218.69,1.797 c 0.43,0.791 0.915,1.567 1.078,1.725 0.163,0.159 -0.055,-0.359 -0.485,-1.15 -0.429,-0.791 -0.914,-1.567 -1.077,-1.725 -0.163,-0.158 0.055,0.359 0.484,1.15 M 141.003,3.924 c -1.241,2.219 -2.276,4.218 -2.104,4.066 0.391,-0.347 2.481,-4.055 2.357,-4.18 -0.067,-0.066 -0.18,-0.015 -0.253,0.114 m -3.559,6.331 c -1.327,2.335 -1.5,2.777 -0.708,1.812 0.324,-0.395 0.593,-0.818 0.596,-0.94 0.004,-0.122 0.34,-0.749 0.746,-1.393 0.407,-0.645 0.681,-1.231 0.609,-1.303 -0.073,-0.073 -0.632,0.748 -1.243,1.824 m 225.93,-1.207 c 10e-4,0.158 0.267,0.611 0.59,1.006 0.391,0.478 0.488,0.526 0.291,0.144 -0.485,-0.938 -0.883,-1.458 -0.881,-1.15 m 2.424,4.313 c 0.43,0.791 0.915,1.567 1.078,1.726 0.163,0.158 -0.055,-0.36 -0.484,-1.151 -0.43,-0.791 -0.915,-1.567 -1.078,-1.725 -0.163,-0.158 0.055,0.359 0.484,1.15 m -229.98,-0.216 c -1.461,2.636 -2.24,4.183 -1.992,3.954 0.391,-0.36 2.452,-4.169 2.256,-4.169 -0.079,0 -0.198,0.097 -0.264,0.215 m 231.29,2.5 c 0,0.213 1.199,2.173 1.329,2.173 0.066,0 -0.143,-0.517 -0.466,-1.15 -0.515,-1.009 -0.863,-1.422 -0.863,-1.023 m -234.14,2.533 c -0.232,0.356 -0.641,1.1 -0.909,1.653 -0.676,1.393 0.206,0.322 1.006,-1.222 0.617,-1.192 0.561,-1.441 -0.097,-0.431 m 235.59,0.144 c 0.003,0.118 0.27,0.539 0.592,0.934 l 0.586,0.719 -0.456,-0.935 c -0.433,-0.888 -0.736,-1.189 -0.722,-0.718 m 1.719,2.947 c 0.322,0.633 0.651,1.15 0.73,1.15 0.079,0 -0.12,-0.517 -0.443,-1.15 -0.322,-0.633 -0.651,-1.15 -0.73,-1.15 -0.079,0 0.12,0.517 0.443,1.15 m -239.63,1.078 c -1.257,2.266 -1.605,2.987 -1.212,2.517 0.553,-0.663 1.662,-2.732 1.464,-2.732 -0.073,0 -0.186,0.097 -0.252,0.215 m 240.49,0.59 c 0,0.127 0.114,0.353 0.252,0.503 0.139,0.15 0.614,0.92 1.055,1.711 2.816,5.045 3.646,6.47 3.767,6.47 0.075,0 0.083,-0.097 0.018,-0.215 -3.632,-6.639 -5.092,-9.067 -5.092,-8.469 m -243.58,4.86 c -0.676,1.234 -1.489,2.696 -1.807,3.249 -1.43,2.495 -1.985,3.573 -1.703,3.307 0.168,-0.158 0.598,-0.805 0.955,-1.438 3.197,-5.658 3.999,-7.147 3.9,-7.246 -0.063,-0.063 -0.668,0.894 -1.345,2.128 m 249.28,5.118 c 0.322,0.633 0.797,1.409 1.057,1.726 0.259,0.316 0.119,-0.072 -0.313,-0.863 -0.965,-1.77 -1.547,-2.445 -0.744,-0.863 m -253.85,2.992 c -0.331,0.648 -0.547,1.178 -0.48,1.178 0.216,0 1.356,-2.081 1.216,-2.221 -0.074,-0.074 -0.406,0.395 -0.736,1.043 m -17.124,1.178 c -0.108,0.34 -0.132,0.683 -0.053,0.762 0.079,0.079 0.232,-0.134 0.34,-0.474 0.108,-0.341 0.132,-0.684 0.053,-0.763 -0.079,-0.079 -0.232,0.135 -0.34,0.475 m 273.56,0.431 c 0.321,0.633 0.8,1.409 1.064,1.726 0.264,0.316 0.127,-0.072 -0.303,-0.863 -0.961,-1.764 -1.569,-2.453 -0.761,-0.863 m -274.36,1.547 c -0.236,0.475 -0.834,1.357 -1.328,1.959 -0.493,0.602 -2.39,3.036 -4.215,5.409 -1.825,2.372 -3.475,4.507 -3.667,4.745 -0.192,0.237 -0.735,0.946 -1.207,1.576 -0.472,0.629 -1.012,1.341 -1.199,1.581 -4.95,6.341 -9.566,12.292 -13.276,17.116 -2.555,3.321 -5.13,6.669 -5.723,7.438 -0.592,0.77 -1.465,1.887 -1.94,2.483 -0.474,0.595 -1.346,1.712 -1.937,2.482 -1.396,1.818 -7.624,9.896 -8.071,10.467 -0.189,0.242 -0.522,0.663 -0.739,0.935 -0.217,0.272 -0.28,0.494 -0.14,0.494 0.14,0 1.159,-1.197 2.264,-2.66 1.105,-1.463 2.082,-2.725 2.17,-2.804 0.089,-0.079 1.25,-1.567 2.581,-3.307 2.13,-2.783 9.972,-12.905 12.142,-15.672 0.435,-0.554 2.28,-2.947 4.101,-5.32 1.82,-2.372 3.793,-4.942 4.384,-5.711 0.591,-0.769 1.208,-1.546 1.372,-1.726 0.164,-0.18 0.68,-0.845 1.146,-1.477 0.466,-0.633 1.818,-2.38 3.004,-3.882 2.412,-3.055 2.866,-3.645 7.205,-9.346 3.114,-4.091 3.887,-5.261 3.641,-5.506 -0.075,-0.076 -0.331,0.251 -0.568,0.726 m 15.652,0.91 c -0.518,0.942 -0.878,1.713 -0.799,1.713 0.21,0 1.991,-3.178 1.856,-3.312 -0.063,-0.063 -0.538,0.656 -1.057,1.599 m 260.2,0.046 c 0,0.261 2.009,3.78 2.347,4.111 0.161,0.159 -0.192,-0.618 -0.785,-1.725 -1.048,-1.956 -1.562,-2.741 -1.562,-2.386 m -261.47,2.151 c -1.568,2.803 -2.249,4.117 -2.132,4.117 0.219,0 2.527,-4.088 2.387,-4.228 -0.068,-0.068 -0.183,-0.018 -0.255,0.111 m 111.94,0.817 c -0.712,0.222 -2.459,0.75 -3.882,1.175 -1.424,0.424 -3.559,1.066 -4.745,1.426 -1.186,0.36 -3.127,0.941 -4.314,1.292 -1.186,0.35 -3.123,0.943 -4.305,1.316 -1.182,0.374 -2.316,0.679 -2.52,0.679 -0.204,0 -0.596,0.119 -0.871,0.264 -0.274,0.145 -1.243,0.48 -2.153,0.745 -0.909,0.266 -1.653,0.545 -1.653,0.622 0,0.211 1.575,-0.175 4.457,-1.091 3.161,-1.005 3.841,-1.211 6.039,-1.834 0.949,-0.269 1.984,-0.59 2.301,-0.715 0.316,-0.124 1.092,-0.366 1.725,-0.537 1.435,-0.388 5.778,-1.677 7.998,-2.374 0.919,-0.288 2.116,-0.608 2.66,-0.71 l 0.988,-0.185 0.039,1.398 0.038,1.398 0.208,-1.438 c 0.302,-2.082 0.235,-2.13 -2.01,-1.431 m 1.466,3.588 c -0.027,0.237 -0.185,2.113 -0.35,4.169 -0.165,2.056 -0.403,4.968 -0.527,6.47 -0.125,1.503 -0.393,5.027 -0.596,7.832 l -0.369,5.101 2.122,2.807 c 1.167,1.545 2.19,2.873 2.274,2.952 0.083,0.079 1.312,1.697 2.729,3.595 1.418,1.898 2.711,3.591 2.875,3.762 0.163,0.172 0.556,0.667 0.872,1.101 0.316,0.434 1.526,2.04 2.689,3.57 1.162,1.53 2.963,3.914 4.001,5.298 1.039,1.384 1.949,2.455 2.024,2.38 0.123,-0.122 -2.587,-3.76 -12.323,-16.543 -1.746,-2.293 -3.461,-4.547 -3.809,-5.008 -0.349,-0.461 -1.188,-1.557 -1.866,-2.436 l -1.232,-1.596 0.16,-2.453 c 0.088,-1.35 0.284,-3.748 0.437,-5.329 0.63,-6.536 1.201,-14.713 1.075,-15.385 -0.075,-0.395 -0.158,-0.525 -0.186,-0.287 m 152.09,0.633 c 0,0.096 0.473,0.995 1.051,1.999 0.577,1.004 1.192,2.115 1.365,2.47 0.174,0.354 0.428,0.645 0.565,0.647 0.137,0.001 0.028,-0.335 -0.241,-0.746 -0.27,-0.411 -0.884,-1.479 -1.366,-2.372 -0.859,-1.594 -1.374,-2.342 -1.374,-1.998 m -269.12,1.367 c -0.334,0.64 -0.511,1.16 -0.395,1.156 0.258,-0.009 1.289,-2.03 1.121,-2.198 -0.066,-0.066 -0.393,0.403 -0.726,1.042 m -1.931,3.509 c -0.272,0.528 -0.685,1.252 -0.917,1.608 -0.271,0.415 -0.307,0.647 -0.101,0.647 0.176,0 0.32,-0.132 0.32,-0.293 0,-0.162 0.333,-0.821 0.74,-1.465 0.407,-0.645 0.675,-1.237 0.596,-1.315 -0.078,-0.079 -0.366,0.289 -0.638,0.818 m 274.79,1.772 c 0,0.114 0.323,0.719 0.719,1.346 0.395,0.626 0.721,1.238 0.725,1.36 0.003,0.122 0.275,0.545 0.603,0.94 0.328,0.395 0.114,-0.187 -0.476,-1.294 -1.061,-1.99 -1.571,-2.754 -1.571,-2.352 m -277.39,2.855 c -0.265,0.514 -0.67,1.258 -0.9,1.654 -0.402,0.689 -0.4,0.695 0.065,0.144 0.567,-0.674 1.666,-2.732 1.459,-2.732 -0.079,0 -0.359,0.42 -0.624,0.934 m 280.55,2.804 c 0.323,0.633 0.651,1.15 0.731,1.15 0.079,0 -0.121,-0.517 -0.444,-1.15 -0.322,-0.633 -0.651,-1.15 -0.73,-1.15 -0.079,0 0.12,0.517 0.443,1.15 m -283.03,1.51 c -0.66,1.012 -1.468,2.691 -1.142,2.372 0.364,-0.356 1.849,-3.019 1.684,-3.019 -0.066,0 -0.31,0.291 -0.542,0.647 m 283.89,0.077 c 0,0.22 1.424,2.439 1.565,2.439 0.066,0 -0.206,-0.582 -0.604,-1.294 -0.66,-1.182 -0.961,-1.54 -0.961,-1.145 M 31.09,63.186 c -0.666,0.49 -1.189,1.793 -0.719,1.793 0.158,0 0.288,-0.194 0.288,-0.432 0,-0.237 0.114,-0.431 0.254,-0.431 0.14,0 0.322,-0.259 0.404,-0.575 0.169,-0.646 0.169,-0.646 -0.227,-0.355 m -1.692,2.789 c -0.255,0.39 -0.464,0.834 -0.464,0.986 0,0.152 -0.162,0.453 -0.36,0.668 -0.695,0.757 -1.075,1.632 -0.785,1.811 0.155,0.095 0.282,-0.028 0.282,-0.275 0,-0.246 0.104,-0.448 0.232,-0.448 0.128,0 0.65,-0.776 1.159,-1.725 0.905,-1.686 0.858,-2.425 -0.064,-1.017 m 75.874,1.376 -0.456,0.935 0.586,-0.719 c 0.564,-0.692 0.748,-1.151 0.462,-1.151 -0.075,0 -0.342,0.421 -0.592,0.935 m -1.64,2.876 c -0.66,1.012 -1.468,2.691 -1.142,2.372 0.364,-0.356 1.849,-3.019 1.684,-3.019 -0.066,0 -0.31,0.291 -0.542,0.647 m -77.135,0.776 c -0.514,0.994 -0.537,1.165 -0.157,1.165 0.155,0 0.364,-0.325 0.463,-0.723 0.1,-0.397 0.394,-0.846 0.653,-0.998 0.43,-0.251 0.428,-0.275 -0.025,-0.283 -0.273,-0.005 -0.693,0.373 -0.934,0.839 m 74.902,3.178 c -0.322,0.632 -0.522,1.15 -0.443,1.15 0.079,0 0.408,-0.518 0.731,-1.15 0.323,-0.633 0.522,-1.151 0.443,-1.151 -0.079,0 -0.408,0.518 -0.731,1.151 m -76.525,-0.36 c -0.019,0.119 -0.019,0.313 0,0.432 0.018,0.118 -0.081,0.215 -0.22,0.215 -0.14,0 -0.316,0.324 -0.392,0.719 -0.075,0.396 -0.026,0.719 0.11,0.719 0.137,0 0.248,-0.183 0.248,-0.407 0,-0.224 0.112,-0.451 0.25,-0.504 0.39,-0.15 0.698,-1.389 0.345,-1.389 -0.169,0 -0.323,0.097 -0.341,0.215 m 75.221,2.732 -0.456,0.935 0.586,-0.719 c 0.565,-0.692 0.749,-1.15 0.463,-1.15 -0.075,0 -0.342,0.42 -0.593,0.934 M 23.47,76.625 c 0,0.237 -0.13,0.431 -0.288,0.431 -0.158,0 -0.284,0.227 -0.281,0.504 0.005,0.407 0.113,0.367 0.569,-0.216 0.628,-0.804 0.715,-1.15 0.287,-1.15 -0.158,0 -0.287,0.194 -0.287,0.431 m 75.331,2.229 c -0.578,1.182 -0.578,1.198 -0.021,0.503 0.535,-0.669 0.982,-1.726 0.729,-1.726 -0.061,0 -0.38,0.55 -0.708,1.223 M 22.107,78.566 c -0.156,0.198 -0.368,0.715 -0.472,1.15 -0.104,0.435 -0.316,0.791 -0.471,0.791 -0.155,0 -0.282,0.194 -0.282,0.431 0,0.238 0.129,0.432 0.287,0.432 0.158,0 0.288,-0.194 0.288,-0.432 0,-0.237 0.101,-0.431 0.224,-0.431 0.124,0 0.405,-0.42 0.625,-0.935 0.22,-0.514 0.454,-1.031 0.519,-1.15 0.198,-0.362 -0.416,-0.239 -0.718,0.144 m 74.251,4.59 c -0.916,1.627 -2.032,3.575 -2.481,4.329 -0.449,0.753 -0.817,1.459 -0.817,1.567 0,0.419 0.577,-0.43 1.606,-2.362 0.589,-1.107 1.31,-2.357 1.602,-2.777 0.292,-0.419 0.53,-0.843 0.53,-0.94 0,-0.097 0.333,-0.704 0.74,-1.349 0.407,-0.644 0.682,-1.229 0.612,-1.299 -0.07,-0.07 -0.877,1.204 -1.792,2.831 M 20.307,82.215 c 0,0.326 -0.102,0.593 -0.226,0.593 -0.481,0 -1.286,1.766 -0.956,2.096 0.234,0.234 0.319,0.185 0.319,-0.182 0,-0.275 0.247,-0.765 0.548,-1.089 0.652,-0.7 0.939,-1.624 0.575,-1.849 -0.143,-0.088 -0.26,0.106 -0.26,0.431 m -2.013,3.271 c 0,0.6 -0.588,1.695 -1.079,2.009 -0.399,0.255 -0.493,1.064 -0.123,1.064 0.444,0 1.794,-2.973 1.489,-3.279 -0.191,-0.191 -0.287,-0.123 -0.287,0.206 m 74.08,4.644 c -0.255,0.39 -0.464,0.781 -0.464,0.869 0,0.088 -0.324,0.672 -0.719,1.298 -0.704,1.116 -0.963,1.821 -0.47,1.28 0.381,-0.417 2.407,-4.155 2.253,-4.155 -0.074,0 -0.344,0.318 -0.6,0.708 M 15.49,90.427 c -0.198,0.224 -0.359,0.543 -0.359,0.708 0,0.165 -0.13,0.299 -0.288,0.299 -0.158,0 -0.288,0.195 -0.288,0.432 0,0.746 0.611,0.469 0.951,-0.432 0.179,-0.474 0.427,-0.862 0.55,-0.862 0.124,0 0.225,-0.13 0.225,-0.288 0,-0.405 -0.367,-0.338 -0.791,0.143 m -1.797,3.452 c 0,0.237 0.129,0.431 0.287,0.431 0.158,0 0.288,-0.194 0.288,-0.431 0,-0.237 -0.13,-0.432 -0.288,-0.432 -0.158,0 -0.287,0.195 -0.287,0.432 m 76.06,1.006 c -0.245,0.475 -0.381,0.863 -0.302,0.863 0.079,0 0.344,-0.388 0.59,-0.863 0.245,-0.474 0.381,-0.862 0.302,-0.862 -0.079,0 -0.345,0.388 -0.59,0.862 m -76.631,0.36 c 0.004,0.523 0.058,0.564 0.283,0.215 0.36,-0.557 0.36,-0.862 0,-0.862 -0.158,0 -0.285,0.291 -0.283,0.647"
             style="fill:#bcbdbe;fill-rule:evenodd;paint-order:stroke fill markers"
             id="path160"
             inkscape:connector-curvature="0" />
          <path
             d="m 225.49,-91.361 c -0.099,0.528 -0.124,1.337 -0.056,1.797 0.091,0.611 0.137,0.488 0.172,-0.458 0.089,-2.43 0.337,-2.407 3.121,0.288 l 2.525,2.444 -2.438,-2.516 c -2.7,-2.786 -3.061,-2.955 -3.324,-1.555 m -0.524,6.979 c -0.101,0.738 -0.166,2.003 -0.145,2.812 0.028,1.028 0.112,0.653 0.281,-1.246 0.255,-2.875 0.173,-3.821 -0.136,-1.566 m 9.163,0.401 c 0.287,0.317 0.582,0.517 0.654,0.445 0.156,-0.156 -0.664,-1.022 -0.967,-1.022 -0.115,0 0.026,0.26 0.313,0.577 m 4.025,4.024 c 1.734,1.74 3.218,3.163 3.297,3.163 0.079,0 -1.276,-1.423 -3.01,-3.163 -1.734,-1.74 -3.218,-3.163 -3.297,-3.163 -0.079,0 1.275,1.423 3.01,3.163 m -41.386,0.784 c -0.43,0.582 -5.645,6.594 -7.206,8.309 -0.162,0.178 -1.265,1.462 -2.451,2.855 -1.186,1.393 -2.804,3.258 -3.594,4.145 -0.791,0.886 -2.15,2.443 -3.02,3.46 -5.767,6.744 -7.487,8.627 -7.882,8.632 -0.172,0.002 -0.614,0.468 -0.982,1.035 l -0.669,1.032 0.813,-0.499 c 0.721,-0.444 2.157,-2.029 7.097,-7.838 0.769,-0.903 1.742,-2.03 2.163,-2.505 0.421,-0.474 1.657,-1.897 2.746,-3.163 1.089,-1.265 2.818,-3.242 3.841,-4.393 1.023,-1.15 2.131,-2.444 2.461,-2.875 0.33,-0.431 0.802,-0.978 1.049,-1.215 0.247,-0.237 1.093,-1.207 1.879,-2.154 0.787,-0.948 1.924,-2.26 2.526,-2.916 0.602,-0.656 1.271,-1.433 1.486,-1.727 0.215,-0.294 0.449,-0.47 0.52,-0.391 0.169,0.187 2.219,4.544 2.219,4.715 0,0.072 0.453,1.111 1.006,2.31 0.554,1.198 1.007,2.234 1.007,2.301 0,0.067 0.374,0.94 0.831,1.94 0.457,0.999 1.152,2.529 1.543,3.399 1.74,3.864 1.986,4.362 2.099,4.249 0.101,-0.1 -1.579,-3.992 -3.912,-9.063 -0.309,-0.67 -0.561,-1.276 -0.561,-1.346 0,-0.069 -0.371,-0.944 -0.824,-1.944 -0.453,-0.999 -1.252,-2.788 -1.776,-3.974 -1.314,-2.978 -1.691,-3.351 -2.409,-2.379 m 27.799,2.235 c 0.003,0.633 0.062,0.858 0.131,0.5 0.068,-0.357 0.066,-0.875 -0.006,-1.15 -0.072,-0.275 -0.128,0.018 -0.125,0.65 m -0.264,3.307 c 0,1.187 0.051,1.672 0.113,1.079 0.062,-0.593 0.062,-1.564 0,-2.157 -0.062,-0.593 -0.113,-0.108 -0.113,1.078 m 24.347,4.458 c 1.813,1.818 3.362,3.307 3.441,3.307 0.079,0 -1.34,-1.489 -3.154,-3.307 -1.814,-1.819 -3.362,-3.307 -3.441,-3.307 -0.079,0 1.34,1.488 3.154,3.307 m -24.658,-0.288 c 0.003,0.633 0.062,0.858 0.131,0.5 0.068,-0.358 0.066,-0.875 -0.006,-1.15 -0.072,-0.275 -0.129,0.017 -0.125,0.65 m -90.08,-0.232 c 0.237,0.084 1.919,1.594 3.738,3.356 l 3.307,3.202 -3.302,-3.378 c -1.816,-1.859 -3.499,-3.369 -3.738,-3.357 -0.385,0.02 -0.385,0.041 -0.005,0.177 m 0.029,2.269 c 0.015,0.461 0.138,1.162 0.273,1.558 0.164,0.484 0.19,0.25 0.078,-0.719 -0.187,-1.618 -0.395,-2.115 -0.351,-0.839 m 89.78,2.564 c 0.001,0.949 0.055,1.303 0.119,0.786 0.064,-0.517 0.063,-1.294 -0.003,-1.726 -0.066,-0.432 -0.118,-0.009 -0.116,0.94 m -89.171,1.869 c -0.003,0.396 0.098,1.043 0.225,1.438 0.309,0.966 0.309,-0.078 0,-1.294 -0.198,-0.775 -0.22,-0.79 -0.225,-0.144 m 88.205,-0.088 c 0.407,0.843 0.877,1.104 0.877,0.489 0,-0.273 -0.085,-0.412 -0.188,-0.309 -0.103,0.103 -0.369,-0.038 -0.591,-0.312 -0.364,-0.45 -0.373,-0.437 -0.098,0.132 m -81.654,0.178 c 0,0.05 0.421,0.47 0.935,0.935 l 0.934,0.844 -0.844,-0.934 c -0.788,-0.871 -1.025,-1.067 -1.025,-0.845 m 65.299,2.948 c -0.021,0.283 1.071,2.791 1.711,3.932 0.154,0.274 0.28,0.681 0.28,0.903 0,0.437 0.697,0.824 0.978,0.543 0.333,-0.333 0.167,-0.632 -0.259,-0.468 -0.238,0.091 -0.432,0.036 -0.432,-0.122 0,-0.418 -2.252,-5.151 -2.278,-4.788 m -99.398,2.92 c -0.771,0.914 -1.472,1.727 -1.558,1.806 -0.085,0.079 -0.994,1.115 -2.019,2.301 -1.025,1.186 -1.931,2.221 -2.013,2.3 -0.187,0.18 -4.454,5.061 -5.281,6.041 -0.697,0.826 -4.039,4.666 -4.973,5.715 -0.345,0.386 -1.38,1.578 -2.301,2.648 -1.24,1.441 -1.823,1.913 -2.249,1.825 -0.316,-0.066 -0.413,-0.045 -0.216,0.045 0.198,0.091 0.36,0.284 0.36,0.429 0,0.145 -0.162,0.265 -0.36,0.267 -0.197,0.002 -0.668,0.48 -1.045,1.061 l -0.685,1.058 1.189,-0.942 c 0.653,-0.518 1.188,-1.033 1.188,-1.145 0,-0.112 0.421,-0.658 0.935,-1.214 0.969,-1.048 4.136,-4.653 5.392,-6.137 0.395,-0.467 1.43,-1.64 2.3,-2.605 0.87,-0.966 1.905,-2.139 2.301,-2.606 0.96,-1.135 4.419,-5.121 4.601,-5.302 0.079,-0.079 0.985,-1.115 2.012,-2.301 1.027,-1.186 2.357,-2.674 2.956,-3.307 1.325,-1.4 0.826,-1.929 5.296,5.608 5.667,9.554 5.461,9.319 6.512,7.457 0.907,-1.606 1.985,-3.534 2.321,-4.15 0.172,-0.317 0.378,-0.64 0.457,-0.719 0.079,-0.079 0.285,-0.403 0.457,-0.719 2.405,-4.414 2.921,-5.126 3.529,-4.874 0.723,0.3 2.455,0.685 2.569,0.571 0.173,-0.173 -3.11,-1.047 -3.358,-0.894 -0.188,0.116 -2.99,4.804 -4.482,7.497 -1.197,2.162 -2.253,3.902 -2.437,4.016 -0.119,0.073 -1.422,-1.9 -2.896,-4.385 -7.465,-12.583 -6.586,-11.617 -8.502,-9.345 m 42.726,3.1 c 2.448,2.452 4.512,4.458 4.587,4.458 0.248,0 -8.463,-8.83 -8.753,-8.873 -0.156,-0.023 1.718,1.964 4.166,4.415 m -14.306,-2.588 c 0.004,0.633 0.062,0.858 0.131,0.5 0.069,-0.357 0.066,-0.875 -0.006,-1.15 -0.072,-0.275 -0.128,0.018 -0.125,0.65 m 0.57,4.458 c 0,0.553 0.059,0.78 0.131,0.503 0.072,-0.277 0.072,-0.73 0,-1.007 -0.072,-0.276 -0.131,-0.05 -0.131,0.504 m -3.805,-0.479 c 0,0.074 0.417,0.28 0.928,0.458 0.51,0.178 0.801,0.205 0.647,0.061 -0.328,-0.307 -1.575,-0.718 -1.575,-0.519 m 24.202,5.335 c 0.179,0.287 0.572,0.676 0.872,0.863 0.523,0.327 0.526,0.311 0.084,-0.364 -0.56,-0.855 -1.477,-1.333 -0.956,-0.499 m 133.22,2.108 c -1.247,1.468 -3.305,3.839 -4.573,5.27 -3.124,3.523 -9.445,10.747 -10.181,11.633 -0.512,0.617 -0.641,0.658 -0.912,0.288 -0.28,-0.384 -0.302,-0.384 -0.198,0 0.232,0.848 0.952,0.533 2.157,-0.944 0.673,-0.825 1.643,-1.965 2.156,-2.534 0.514,-0.568 1.257,-1.41 1.652,-1.871 1.749,-2.039 4.471,-5.16 4.615,-5.291 0.341,-0.312 6.213,-7.113 6.888,-7.979 l 0.719,-0.921 0.314,6.535 0.314,6.535 -0.027,-6.59 c -0.018,-4.504 -0.126,-6.624 -0.341,-6.696 -0.174,-0.057 -1.336,1.097 -2.583,2.565 m 13.394,4.637 c 0,0.113 1.158,1 4.226,3.236 2.441,1.78 4.268,2.991 4.51,2.991 0.157,0 -0.587,-0.614 -1.653,-1.365 -1.066,-0.752 -3.096,-2.183 -4.511,-3.181 -1.415,-0.997 -2.572,-1.754 -2.572,-1.681 m -2.739,1.957 c -2.275,1.793 -2.681,2.118 -4.275,3.417 -1.866,1.52 -2.986,2.26 -3.159,2.087 -0.099,-0.098 -0.179,-0.028 -0.179,0.156 0,0.624 0.628,0.341 2.292,-1.03 0.911,-0.751 3.033,-2.449 4.715,-3.772 2.775,-2.184 3.272,-2.626 2.953,-2.626 -0.058,0 -1.114,0.795 -2.347,1.768 m 36.959,1.762 c 0,0.055 0.421,0.408 0.935,0.784 0.578,0.423 0.779,0.493 0.526,0.182 -0.383,-0.471 -1.461,-1.184 -1.461,-0.966 m -254.02,7.756 -0.517,0.935 0.593,-0.719 c 0.525,-0.637 0.759,-1.15 0.523,-1.15 -0.045,0 -0.314,0.42 -0.599,0.934 M 61.636,9.259 61.119,10.194 61.711,9.475 c 0.526,-0.638 0.759,-1.15 0.524,-1.15 -0.045,0 -0.315,0.42 -0.599,0.934 m -1.428,2.445 c -0.715,1.189 -1.637,3.029 -1.404,2.803 0.384,-0.372 1.848,-3.019 1.67,-3.019 -0.075,0 -0.195,0.097 -0.266,0.216 m -3.724,6.621 -0.513,1.071 0.578,-0.719 c 0.319,-0.395 0.582,-0.881 0.585,-1.078 0.01,-0.552 -0.094,-0.435 -0.65,0.726 m -1.704,3.012 c -0.459,0.716 -0.843,1.653 -0.679,1.653 0.058,0 0.376,-0.517 0.706,-1.15 0.651,-1.25 0.636,-1.539 -0.027,-0.503 m -2.418,4.313 c -0.99,1.68 -1.055,1.823 -0.55,1.223 0.584,-0.696 1.087,-1.582 0.899,-1.582 -0.076,0 -0.233,0.162 -0.349,0.359"
             style="fill:#dbdbdc;fill-rule:evenodd;paint-order:stroke fill markers"
             id="path162"
             inkscape:connector-curvature="0" />
          <rect
             transform="matrix(1.0995,0,0,1.1014,-42.147,-15.432)"
             x="363.07999"
             y="20.834"
             width="1005.6"
             height="135.81"
             ry="10.49321"
             style="fill:#3e3c5f;stroke-width:0.98591;paint-order:normal"
             id="rect164" />
          <path
             transform="matrix(0.99927,0,0,0.99837,-36.826,8.3381)"
             d="M 67.664,149.00047 C 17.910181,60.65925 38.378163,-50.905652 116.311,-115.76 c 77.93369,-64.85578 191.07696,-64.76806 268.91,0.20847 77.8348,64.975679 98.13047,176.286853 48.237,264.552"
             style="fill:#4e556b;fill-rule:evenodd;stroke-width:1.00820005;paint-order:stroke fill markers"
             id="path166"
             inkscape:connector-curvature="0"
             sodipodi:nodetypes="cccc" />
          <path
             d="m 230.67,-87.434 c 1.258,1.266 2.352,2.301 2.431,2.301 0.079,0 -0.886,-1.035 -2.144,-2.301 -1.257,-1.265 -2.351,-2.3 -2.43,-2.3 -0.079,0 0.885,1.035 2.143,2.3 m -5.238,-0.143 c 0.002,0.79 0.058,1.08 0.124,0.643 0.066,-0.437 0.065,-1.085 -0.004,-1.438 -0.068,-0.354 -0.122,0.004 -0.12,0.795 m -0.303,4.457 c 0,0.553 0.059,0.78 0.132,0.503 0.072,-0.277 0.072,-0.73 0,-1.006 -0.073,-0.277 -0.132,-0.051 -0.132,0.503 m -0.272,4.169 c 0.002,0.791 0.058,1.081 0.124,0.644 0.066,-0.438 0.065,-1.085 -0.004,-1.438 -0.068,-0.354 -0.122,0.004 -0.12,0.794 m 15.59,1.582 c 1.576,1.582 2.93,2.876 3.009,2.876 0.079,0 -1.146,-1.294 -2.721,-2.876 -1.576,-1.582 -2.93,-2.876 -3.009,-2.876 -0.079,0 1.145,1.294 2.721,2.876 m -43.48,-1.606 c -0.126,0.223 -0.747,0.969 -1.38,1.655 -0.632,0.687 -1.794,2.025 -2.581,2.973 -0.786,0.947 -1.632,1.917 -1.879,2.154 -0.247,0.237 -0.719,0.784 -1.049,1.215 -0.33,0.431 -1.438,1.725 -2.461,2.875 -1.023,1.151 -2.752,3.128 -3.841,4.393 -1.089,1.266 -2.325,2.689 -2.746,3.163 -0.421,0.475 -1.394,1.602 -2.163,2.505 -4.877,5.734 -6.366,7.388 -7.01,7.786 -0.399,0.247 -0.991,0.944 -1.315,1.549 -0.539,1.006 -0.961,1.765 -2.617,4.695 -2.214,3.921 -3.544,6.325 -3.937,7.118 -0.183,0.371 -0.491,0.583 -0.72,0.496 -0.331,-0.124 -0.336,-0.073 -0.029,0.298 0.422,0.508 0.377,0.62 -1.656,4.102 -0.672,1.152 -1.222,2.208 -1.222,2.349 0,0.14 -0.097,0.298 -0.216,0.351 -0.119,0.053 -0.51,0.678 -0.87,1.39 -0.36,0.712 -1.109,2.07 -1.664,3.019 -0.555,0.949 -1.092,1.92 -1.193,2.157 -0.102,0.237 -0.259,0.496 -0.35,0.575 -0.162,0.141 -1.55,2.686 -2.156,3.952 -0.17,0.354 -0.406,0.646 -0.525,0.647 -0.118,0.001 -0.215,0.119 -0.215,0.262 0,0.143 -0.469,1.081 -1.042,2.085 -0.573,1.004 -1.263,2.213 -1.534,2.687 -0.271,0.475 -0.819,1.445 -1.218,2.157 -0.399,0.712 -0.982,1.747 -1.294,2.301 -0.313,0.553 -0.914,1.621 -1.335,2.372 -0.422,0.751 -1.111,1.981 -1.533,2.732 -0.421,0.751 -1.025,1.819 -1.342,2.372 -0.317,0.554 -0.86,1.524 -1.206,2.157 -1.431,2.612 -2.238,4.042 -2.433,4.313 -0.114,0.159 -0.684,1.165 -1.266,2.238 -1.345,2.478 -2.097,3.817 -2.59,4.61 -0.215,0.346 -0.778,1.341 -1.251,2.211 -0.474,0.87 -1.348,2.422 -1.944,3.45 -0.596,1.029 -1.538,2.711 -2.095,3.739 -0.557,1.028 -1.251,2.212 -1.542,2.632 -0.292,0.42 -0.531,0.825 -0.531,0.899 0,0.122 -2.296,4.266 -4.018,7.252 -0.688,1.193 -1.881,3.314 -2.426,4.314 -0.172,0.316 -0.378,0.64 -0.457,0.719 -0.079,0.079 -0.411,0.661 -0.737,1.294 -0.968,1.876 -2.762,5.098 -3.481,6.249 -0.369,0.59 -0.671,1.193 -0.671,1.342 0,0.148 -0.097,0.312 -0.215,0.365 -0.119,0.052 -0.474,0.613 -0.788,1.246 -0.315,0.632 -0.639,1.215 -0.719,1.294 -0.152,0.148 -1.594,2.813 -2.139,3.952 -0.169,0.354 -0.405,0.645 -0.524,0.647 -0.119,0.001 -0.216,0.119 -0.216,0.262 0,0.143 -0.469,1.081 -1.042,2.085 -0.573,1.003 -1.37,2.407 -1.772,3.119 -0.402,0.711 -0.987,1.746 -1.3,2.3 -0.312,0.554 -0.895,1.589 -1.294,2.301 -0.399,0.711 -0.981,1.746 -1.294,2.3 -0.562,0.996 -1.52,2.703 -2.552,4.548 -0.294,0.524 -0.709,1.235 -0.924,1.581 -0.215,0.346 -0.816,1.405 -1.334,2.354 -1.466,2.68 -2.143,3.907 -3.016,5.464 -0.444,0.791 -1.047,1.866 -1.34,2.391 -0.294,0.524 -0.709,1.235 -0.924,1.581 -0.215,0.346 -0.779,1.341 -1.252,2.21 -0.474,0.87 -1.779,3.2 -2.901,5.177 l -2.039,3.594 40.081,0.073 c 22.045,0.04 58.212,0.04 80.372,0 l 40.289,-0.073 -2.07,-2.732 c -1.139,-1.502 -2.922,-3.853 -3.962,-5.223 -1.04,-1.37 -2.15,-2.847 -2.466,-3.282 -0.316,-0.436 -0.709,-0.932 -0.872,-1.104 -0.164,-0.171 -1.457,-1.864 -2.875,-3.762 -1.417,-1.898 -2.646,-3.516 -2.729,-3.595 -0.084,-0.079 -1.107,-1.407 -2.274,-2.952 l -2.122,-2.807 0.369,-5.101 c 0.421,-5.819 0.893,-11.574 1.619,-19.734 l 0.202,-2.269 -1.033,0.194 c -0.568,0.106 -1.785,0.43 -2.704,0.718 -2.22,0.697 -6.563,1.986 -7.998,2.374 -0.633,0.171 -1.409,0.413 -1.725,0.537 -0.317,0.125 -1.352,0.444 -2.301,0.709 -0.949,0.266 -2.049,0.589 -2.444,0.718 -0.396,0.129 -2.078,0.645 -3.739,1.147 -1.66,0.502 -3.626,1.098 -4.367,1.324 -0.742,0.227 -1.633,0.412 -1.981,0.412 h -0.633 l 0.206,-13.588 c 0.235,-15.428 -0.118,-13.493 2.893,-15.892 0.791,-0.63 1.606,-1.305 1.811,-1.499 0.206,-0.194 2.147,-1.807 4.314,-3.584 2.167,-1.777 4.005,-3.305 4.084,-3.395 0.079,-0.09 0.791,-0.677 1.581,-1.304 0.791,-0.628 1.503,-1.21 1.582,-1.294 0.079,-0.085 0.746,-0.64 1.482,-1.234 1.524,-1.231 1.408,-0.687 1.999,-9.397 0.166,-2.451 0.41,-6.01 0.542,-7.908 0.133,-1.897 0.38,-5.563 0.55,-8.145 0.17,-2.583 0.383,-4.816 0.474,-4.963 0.151,-0.244 -0.179,-1.553 -0.756,-2.995 -0.236,-0.591 -0.615,-1.757 -2.989,-9.202 -0.757,-2.372 -1.48,-4.572 -1.608,-4.889 -0.127,-0.316 -0.575,-1.61 -0.994,-2.875 -1.309,-3.95 -1.307,-3.947 -1.979,-3.744 -0.332,0.1 -1.315,0.294 -2.185,0.432 -0.87,0.137 -2.552,0.406 -3.738,0.599 -4.633,0.751 -4.558,0.831 -3.758,-4.045 0.195,-1.186 0.457,-2.97 0.582,-3.963 0.137,-1.087 0.44,-2.041 0.759,-2.394 0.293,-0.323 0.406,-0.562 0.252,-0.532 -0.61,0.121 -0.998,-0.031 -0.998,-0.39 0,-0.207 -0.242,-0.887 -0.538,-1.51 -0.295,-0.622 -0.764,-1.65 -1.042,-2.282 -0.278,-0.633 -0.862,-1.927 -1.299,-2.876 -0.436,-0.949 -1.081,-2.372 -1.432,-3.163 -0.352,-0.791 -1.014,-2.256 -1.471,-3.255 -0.458,-1 -0.832,-1.87 -0.832,-1.934 0,-0.064 -0.384,-0.955 -0.853,-1.979 -0.469,-1.024 -1.057,-2.354 -1.307,-2.955 -1.64,-3.949 -2.194,-4.786 -2.643,-3.992 m 27.315,8.651 c 0.002,0.791 0.058,1.081 0.124,0.643 0.066,-0.437 0.064,-1.084 -0.004,-1.437 -0.068,-0.354 -0.122,0.004 -0.12,0.794 m -0.303,2.732 c 0,0.554 0.059,0.78 0.131,0.503 0.073,-0.276 0.073,-0.729 0,-1.006 -0.072,-0.277 -0.131,-0.05 -0.131,0.503 m -82.31,5.608 c 1.972,1.977 3.651,3.594 3.73,3.594 0.079,0 -1.47,-1.617 -3.442,-3.594 -1.973,-1.977 -3.651,-3.595 -3.73,-3.595 -0.079,0 1.47,1.618 3.442,3.595 m 81.995,-0.756 c -0.035,0.601 -0.099,0.637 -0.543,0.303 -0.477,-0.359 -0.477,-0.351 -0.006,0.164 0.592,0.647 0.892,0.448 0.716,-0.477 l -0.128,-0.672 -0.039,0.682 m -116.23,5.712 c -0.543,0.598 -1.828,2.057 -2.856,3.242 -1.028,1.184 -1.934,2.219 -2.013,2.298 -0.182,0.181 -3.641,4.167 -4.601,5.302 -0.396,0.467 -1.431,1.64 -2.301,2.606 -0.87,0.965 -1.959,2.202 -2.421,2.747 -0.461,0.545 -1.302,1.513 -1.869,2.151 -0.566,0.638 -1.742,1.995 -2.611,3.015 -0.87,1.019 -2.125,2.374 -2.79,3.009 -0.664,0.635 -1.519,1.743 -1.9,2.46 -0.964,1.815 -1.468,2.697 -1.639,2.865 -0.163,0.161 -1.676,2.953 -2.142,3.952 -0.165,0.354 -0.397,0.646 -0.516,0.647 -0.118,0.001 -0.215,0.119 -0.215,0.262 0,0.143 -0.469,1.081 -1.043,2.085 -1.372,2.403 -2.174,3.844 -3.013,5.419 -0.379,0.712 -0.754,1.359 -0.833,1.438 -0.079,0.079 -0.387,0.597 -0.684,1.15 -0.494,0.921 -0.943,1.726 -2.567,4.601 -0.313,0.554 -0.895,1.589 -1.294,2.301 -0.399,0.711 -0.982,1.747 -1.294,2.3 -0.313,0.554 -0.895,1.589 -1.294,2.301 -0.399,0.711 -0.963,1.714 -1.254,2.228 -0.29,0.514 -0.765,1.356 -1.055,1.87 -0.29,0.514 -0.894,1.581 -1.342,2.372 -0.448,0.791 -1.098,1.955 -1.445,2.588 -0.702,1.28 -1.984,3.57 -2.736,4.889 -0.271,0.474 -0.962,1.683 -1.535,2.687 -0.573,1.004 -1.041,1.89 -1.041,1.969 0,0.079 -0.239,0.487 -0.531,0.907 -0.291,0.419 -0.985,1.604 -1.542,2.632 -0.557,1.028 -1.499,2.71 -2.095,3.738 -0.596,1.028 -1.47,2.581 -1.944,3.451 -0.473,0.87 -1.039,1.869 -1.257,2.219 -0.218,0.351 -0.741,1.257 -1.162,2.013 -0.421,0.757 -1.004,1.796 -1.294,2.31 -0.29,0.514 -0.801,1.42 -1.135,2.013 -0.334,0.593 -1.092,1.92 -1.683,2.948 -0.592,1.028 -1.467,2.581 -1.944,3.45 -0.477,0.87 -1.337,2.403 -1.911,3.407 -0.574,1.004 -1.044,1.942 -1.044,2.085 0,0.143 -0.114,0.26 -0.254,0.26 -0.139,0 -0.326,0.226 -0.415,0.503 -0.089,0.277 -0.539,1.15 -0.999,1.941 -1.302,2.234 -2.404,4.206 -3.056,5.464 -0.327,0.632 -0.66,1.215 -0.739,1.294 -0.079,0.079 -0.389,0.597 -0.688,1.15 -1.494,2.765 -1.732,3.163 -1.893,3.163 -0.095,0 -0.194,0.289 -0.221,0.643 -0.027,0.353 -0.184,0.688 -0.349,0.743 -0.165,0.055 -0.3,0.283 -0.3,0.507 0,0.224 -0.151,0.408 -0.336,0.408 -0.184,0 -0.254,0.081 -0.155,0.18 0.218,0.218 -1.533,3.558 -1.865,3.558 -0.128,0 -0.232,0.202 -0.232,0.448 0,0.247 -0.097,0.39 -0.216,0.318 -0.118,-0.072 -0.382,0.05 -0.586,0.271 -0.307,0.331 -0.282,0.402 0.143,0.41 0.465,0.007 0.469,0.035 0.044,0.283 -0.259,0.152 -0.553,0.601 -0.653,0.998 -0.099,0.398 -0.308,0.723 -0.463,0.723 -0.155,0 -0.282,0.194 -0.282,0.431 0,0.237 -0.115,0.431 -0.256,0.431 -0.14,0 -0.34,0.453 -0.444,1.007 -0.104,0.553 -0.312,1.006 -0.463,1.006 -0.151,0 -0.275,0.194 -0.275,0.432 0,0.237 -0.202,0.431 -0.448,0.431 -0.247,0 -0.368,0.13 -0.27,0.29 0.099,0.159 -0.061,0.644 -0.354,1.078 -0.294,0.434 -0.787,1.306 -1.097,1.939 -0.309,0.633 -0.66,1.193 -0.778,1.246 -0.119,0.053 -0.216,0.265 -0.216,0.473 0,0.207 -0.195,0.451 -0.434,0.543 -0.239,0.091 -0.418,0.267 -0.397,0.39 0.103,0.633 -0.088,1.182 -0.607,1.739 -0.316,0.34 -0.575,0.813 -0.575,1.052 0,0.288 -0.162,0.372 -0.481,0.249 -0.358,-0.137 -0.436,-0.067 -0.306,0.274 0.185,0.48 -1.158,3.38 -1.565,3.38 -0.13,0 -0.236,0.194 -0.236,0.431 0,0.237 -0.13,0.432 -0.288,0.432 -0.158,0 -0.287,0.272 -0.287,0.605 0,0.399 -0.137,0.554 -0.399,0.453 -0.275,-0.105 -0.356,0.011 -0.261,0.374 0.076,0.291 -0.108,0.773 -0.41,1.075 -0.301,0.301 -0.497,0.702 -0.434,0.889 0.063,0.188 -0.026,0.342 -0.198,0.342 -0.171,0 -0.311,0.248 -0.311,0.551 0,0.303 -0.112,0.594 -0.25,0.647 -0.137,0.053 -0.34,0.387 -0.45,0.743 l -0.202,0.647 h 47.998 l 0.733,-0.935 c 0.774,-0.988 6.645,-8.59 8.465,-10.961 0.591,-0.77 1.463,-1.887 1.937,-2.482 0.475,-0.596 1.348,-1.713 1.94,-2.483 0.593,-0.769 3.168,-4.117 5.723,-7.438 3.71,-4.824 8.326,-10.775 13.276,-17.116 0.187,-0.24 0.727,-0.952 1.199,-1.581 0.472,-0.63 1.015,-1.339 1.207,-1.576 0.192,-0.238 1.842,-2.373 3.667,-4.745 1.825,-2.373 3.7,-4.781 4.167,-5.351 1.462,-1.787 1.944,-2.854 3.041,-6.727 0.269,-0.949 0.592,-1.984 0.719,-2.3 0.126,-0.317 0.517,-1.546 0.868,-2.732 0.352,-1.186 0.93,-3.063 1.285,-4.17 0.355,-1.107 1.133,-3.566 1.728,-5.463 0.596,-1.898 1.182,-3.71 1.304,-4.026 0.121,-0.317 0.509,-1.546 0.862,-2.732 0.353,-1.186 1.013,-3.301 1.467,-4.699 1.023,-3.151 1.028,-2.982 -0.15,-5.465 -0.537,-1.132 -1.653,-3.481 -2.481,-5.221 -3.862,-8.119 -4.614,-9.753 -4.762,-10.341 -0.156,-0.62 2.025,-2.83 10.51,-10.651 1.03,-0.949 2.844,-2.645 4.032,-3.768 1.188,-1.124 2.99,-2.817 4.004,-3.764 l 1.845,-1.72 -0.336,-5.295 c -0.184,-2.912 -0.336,-7.042 -0.337,-9.177 -0.004,-8.175 -0.928,-9.482 -3.412,-4.828 -1.031,1.931 -1.61,2.952 -1.761,3.103 -0.079,0.079 -0.285,0.402 -0.457,0.719 -0.336,0.616 -1.414,2.544 -2.321,4.15 -1.057,1.873 -0.734,2.247 -6.671,-7.727 -4.147,-6.968 -3.911,-6.73 -5.236,-5.27 m 45.023,6.115 c 1.417,1.423 2.641,2.588 2.72,2.588 0.079,0 -1.016,-1.165 -2.433,-2.588 -1.416,-1.424 -2.64,-2.588 -2.72,-2.588 -0.079,0 1.016,1.164 2.433,2.588 m 138.75,4.387 c -0.677,0.867 -6.549,7.668 -6.888,7.978 -0.155,0.142 -3.215,3.654 -4.615,5.297 -0.395,0.464 -0.913,1.054 -1.15,1.31 -0.237,0.256 -1.208,1.366 -2.157,2.465 -0.949,1.1 -1.809,2.038 -1.911,2.085 -0.542,0.25 8.33,12.326 10.395,14.149 0.089,0.079 0.676,0.79 1.303,1.581 0.628,0.791 1.206,1.503 1.286,1.582 0.08,0.079 0.526,0.661 0.991,1.294 0.466,0.632 0.922,1.215 1.014,1.294 0.093,0.079 1.518,1.826 3.167,3.882 5.036,6.278 8.978,11.169 9.757,12.106 0.408,0.491 1.145,1.397 1.638,2.013 0.492,0.617 2.095,2.61 3.561,4.429 1.466,1.819 3.004,3.727 3.417,4.241 0.414,0.514 0.85,0.935 0.968,0.935 0.504,0 0.22,-4.887 -0.359,-6.186 -0.316,-0.71 -0.834,-1.872 -1.15,-2.582 -0.317,-0.71 -0.576,-1.369 -0.576,-1.466 0,-0.186 -0.334,-0.975 -1.547,-3.649 -0.414,-0.914 -0.753,-1.724 -0.753,-1.8 0,-0.077 -0.274,-0.753 -0.609,-1.502 -0.796,-1.783 -1.207,-2.751 -1.985,-4.67 -0.353,-0.87 -1.013,-2.382 -1.468,-3.361 -0.455,-0.978 -0.827,-1.992 -0.827,-2.252 0,-0.474 1.426,-3.237 4.226,-8.19 0.313,-0.553 1.388,-2.559 2.388,-4.457 1.001,-1.898 2.075,-3.904 2.389,-4.457 0.534,-0.944 0.549,-1.207 0.241,-4.202 -0.461,-4.474 -0.44,-5.392 0.117,-5.178 0.256,0.098 0.371,0.05 0.271,-0.113 -0.097,-0.157 -0.337,-0.285 -0.534,-0.285 -0.197,0 -1.167,-0.569 -2.156,-1.265 -1.954,-1.376 -2.192,-1.548 -4.847,-3.501 l -1.788,-1.315 -3.208,2.538 c -1.764,1.395 -3.955,3.152 -4.868,3.903 -1.694,1.394 -2.275,1.645 -2.321,1.006 -0.014,-0.197 -0.176,-3.558 -0.36,-7.468 l -0.333,-7.11 -0.719,0.921 m -133.72,0.647 c 1.145,1.379 1.241,1.468 0.929,0.858 -0.163,-0.318 -0.6,-0.835 -0.97,-1.149 -0.65,-0.549 -0.649,-0.539 0.041,0.291"
             style="fill:url(#linearGradient5409);fill-rule:evenodd;paint-order:stroke fill markers"
             id="path168"
             inkscape:connector-curvature="0" />
          <path
             d="m 226.07,-90.64 c -0.101,0.458 -0.319,2.884 -0.486,5.392 -0.167,2.509 -0.404,6.049 -0.528,7.868 -0.123,1.819 -0.361,5.377 -0.529,7.908 -0.357,5.402 -0.636,8.196 -0.819,8.196 -0.347,0 -0.961,-0.979 -2.434,-3.883 -5.074,-10.001 -4.905,-9.731 -5.275,-8.411 -0.099,0.356 -0.285,0.906 -0.413,1.222 -0.128,0.317 -0.858,2.517 -1.623,4.889 -0.765,2.372 -1.484,4.508 -1.597,4.745 -0.114,0.237 -0.562,1.596 -0.995,3.019 -0.433,1.424 -0.896,2.711 -1.028,2.861 -0.132,0.151 -0.24,0.512 -0.24,0.803 0,0.291 -0.239,1.009 -0.53,1.596 -0.292,0.586 -0.748,2.555 -1.014,4.374 -0.266,1.818 -0.621,3.996 -0.789,4.839 -0.374,1.872 -0.339,1.911 1.382,1.53 0.76,-0.168 2.353,-0.453 3.539,-0.633 1.186,-0.18 2.814,-0.449 3.617,-0.598 2.185,-0.404 2.076,-0.578 4.697,7.446 1.331,4.07 2.98,9.103 3.666,11.184 1.397,4.233 1.478,5.257 0.947,11.889 -0.158,1.977 -0.416,5.471 -0.573,7.765 -0.157,2.293 -0.404,5.916 -0.55,8.051 -0.146,2.135 -0.355,4.621 -0.465,5.525 l -0.2,1.642 -4.491,3.662 c -2.47,2.014 -6.65,5.457 -9.289,7.649 l -4.798,3.988 -0.151,1.492 c -0.395,3.897 -0.419,25.503 -0.028,25.503 0.475,0 4.978,-1.392 5.673,-1.753 0.275,-0.143 0.667,-0.26 0.871,-0.26 0.204,0 1.338,-0.305 2.52,-0.679 1.182,-0.373 3.119,-0.966 4.305,-1.316 1.187,-0.351 3.128,-0.932 4.314,-1.292 1.186,-0.36 3.257,-0.982 4.601,-1.382 1.344,-0.4 3.199,-0.952 4.121,-1.226 2.076,-0.618 2.196,-0.491 1.903,2.013 -0.13,1.107 -0.443,4.86 -0.696,8.339 -0.253,3.48 -0.58,7.491 -0.728,8.915 -0.147,1.423 -0.339,3.759 -0.427,5.19 l -0.159,2.602 1.228,1.592 c 0.675,0.875 1.513,1.969 1.862,2.43 0.348,0.461 2.064,2.715 3.811,5.008 1.748,2.294 5.28,6.974 7.849,10.402 l 4.672,6.232 46.217,0.023 c 50.055,0.024 46.642,0.119 45.653,-1.272 -0.112,-0.158 -0.526,-0.87 -0.921,-1.582 -0.394,-0.711 -1.012,-1.811 -1.373,-2.444 -0.361,-0.633 -1.458,-2.574 -2.437,-4.313 -0.979,-1.74 -3.825,-6.787 -6.325,-11.215 -2.5,-4.429 -4.932,-8.764 -5.404,-9.634 -0.471,-0.87 -1.036,-1.868 -1.254,-2.219 -0.218,-0.35 -0.741,-1.256 -1.162,-2.013 -0.422,-0.756 -0.988,-1.763 -1.259,-2.238 -0.271,-0.474 -0.961,-1.684 -1.534,-2.688 -0.573,-1.003 -1.042,-1.889 -1.042,-1.968 0,-0.079 -0.238,-0.487 -0.53,-0.907 -0.292,-0.42 -1.023,-1.669 -1.625,-2.776 -1.418,-2.609 -1.975,-3.603 -4.355,-7.764 l -1.973,-3.451 0.07,-3.163 c 0.094,-4.256 0.686,-14.343 0.853,-14.522 0.073,-0.079 0.391,0.179 0.707,0.575 0.316,0.395 1.001,1.236 1.523,1.869 0.998,1.21 2.495,3.056 3.846,4.745 0.443,0.553 2.42,3.012 4.392,5.463 1.973,2.452 5.512,6.852 7.866,9.778 2.354,2.926 4.613,5.722 5.02,6.213 0.408,0.491 0.935,1.138 1.172,1.438 0.238,0.299 1.734,2.162 3.325,4.139 1.592,1.977 4.502,5.6 6.468,8.051 1.965,2.452 3.643,4.522 3.729,4.601 0.217,0.2 6.836,8.426 7.951,9.881 0.502,0.655 2.23,2.808 3.841,4.785 1.612,1.977 4.563,5.633 6.559,8.124 l 3.628,4.529 h 20.208 c 12.244,0 20.208,-0.105 20.208,-0.267 0,-0.147 -0.194,-0.461 -0.431,-0.698 -0.238,-0.238 -0.432,-0.635 -0.432,-0.884 0,-0.248 -0.129,-0.452 -0.287,-0.452 -0.158,0 -0.264,-0.097 -0.236,-0.215 0.105,-0.438 -1.083,-2.54 -1.856,-3.286 -0.439,-0.423 -0.774,-0.876 -0.744,-1.006 0.118,-0.515 -0.408,-1.803 -0.928,-2.274 -0.303,-0.273 -0.55,-0.671 -0.55,-0.884 0,-0.212 -0.113,-0.386 -0.251,-0.386 -0.139,0 -0.324,-0.356 -0.412,-0.791 -0.088,-0.435 -0.428,-1.077 -0.755,-1.426 -0.327,-0.349 -0.595,-0.824 -0.595,-1.054 0,-0.231 -0.097,-0.463 -0.215,-0.516 -0.119,-0.052 -0.587,-0.84 -1.041,-1.749 -0.454,-0.909 -0.939,-1.653 -1.078,-1.653 -0.14,0 -0.254,-0.259 -0.254,-0.576 0,-0.316 -0.103,-0.575 -0.228,-0.575 -0.126,0 -0.469,-0.582 -0.763,-1.294 -0.293,-0.711 -0.643,-1.294 -0.777,-1.294 -0.135,0 -0.245,-0.194 -0.245,-0.431 0,-0.237 -0.129,-0.431 -0.287,-0.431 -0.158,0 -0.288,-0.259 -0.288,-0.576 0,-0.316 -0.103,-0.575 -0.23,-0.575 -0.126,0 -0.395,-0.457 -0.596,-1.015 -0.202,-0.558 -0.649,-1.308 -0.993,-1.666 -0.344,-0.359 -0.662,-0.84 -0.707,-1.07 -0.131,-0.669 -1.034,-2.288 -1.277,-2.288 -0.123,0 -0.223,-0.258 -0.223,-0.575 0,-0.316 -0.105,-0.575 -0.234,-0.575 -0.128,0 -0.413,-0.457 -0.632,-1.015 -0.245,-0.624 -0.543,-0.96 -0.774,-0.871 -0.304,0.117 -1.81,-1.756 -1.81,-2.25 0,-0.114 -0.983,-1.869 -2.919,-5.21 -0.459,-0.79 -1.055,-1.923 -1.326,-2.516 -0.271,-0.593 -0.591,-1.078 -0.712,-1.078 -0.121,0 -0.22,-0.142 -0.22,-0.315 0,-0.173 -0.238,-0.659 -0.529,-1.079 -0.291,-0.419 -1.051,-1.733 -1.688,-2.92 -0.638,-1.186 -1.419,-2.609 -1.736,-3.163 -2.127,-3.709 -2.66,-4.673 -2.66,-4.8 0,-0.079 -0.239,-0.487 -0.531,-0.907 -0.291,-0.419 -0.986,-1.604 -1.543,-2.632 -0.845,-1.56 -3.989,-7.124 -6.337,-11.215 -0.318,-0.554 -1.098,-1.977 -1.735,-3.163 -0.636,-1.186 -1.253,-2.286 -1.37,-2.444 -0.118,-0.159 -0.573,-0.935 -1.011,-1.726 -0.438,-0.791 -1.034,-1.858 -1.324,-2.372 -0.29,-0.514 -0.765,-1.355 -1.055,-1.869 -0.291,-0.514 -0.873,-1.55 -1.294,-2.301 -0.422,-0.751 -1.112,-1.981 -1.533,-2.732 -0.421,-0.751 -1.022,-1.819 -1.335,-2.372 -0.312,-0.554 -0.895,-1.589 -1.294,-2.301 -0.399,-0.711 -0.947,-1.682 -1.218,-2.156 -0.271,-0.475 -0.961,-1.684 -1.534,-2.688 -0.573,-1.004 -1.042,-1.89 -1.042,-1.969 0,-0.079 -0.238,-0.487 -0.53,-0.906 -0.292,-0.42 -1.023,-1.67 -1.624,-2.777 -1.905,-3.503 -2.331,-4.26 -3.699,-6.566 -0.735,-1.238 -1.336,-2.3 -1.336,-2.359 0,-0.059 -0.375,-0.744 -0.834,-1.522 -0.459,-0.779 -1.256,-2.175 -1.772,-3.104 -0.516,-0.929 -1.176,-2.11 -1.467,-2.624 -0.29,-0.514 -0.801,-1.42 -1.135,-2.013 -0.335,-0.593 -1.092,-1.92 -1.684,-2.948 -0.591,-1.028 -1.467,-2.58 -1.946,-3.45 -2.197,-3.994 -2.434,-4.304 -4.327,-5.667 -1.053,-0.758 -2.307,-1.621 -2.786,-1.918 -0.479,-0.297 -0.936,-0.62 -1.015,-0.719 -0.127,-0.158 -2.222,-1.602 -5.435,-3.746 -0.569,-0.379 -1.1,-0.778 -1.179,-0.886 -0.079,-0.107 -0.95,-0.726 -1.934,-1.376 l -1.791,-1.181 -0.582,0.817 c -0.32,0.45 -0.582,0.959 -0.582,1.133 0,0.173 -0.098,0.315 -0.219,0.315 -0.121,0 -0.442,0.485 -0.712,1.078 -0.271,0.593 -0.861,1.726 -1.311,2.516 -0.451,0.791 -1.505,2.732 -2.344,4.314 -2.057,3.88 -2.281,4.104 -3.427,3.428 -1.173,-0.693 -1.141,-0.831 -0.861,3.732 l 0.246,3.998 -1.866,3.537 c -1.026,1.945 -2.172,4.093 -2.546,4.773 -4.792,8.72 -5.144,9.479 -4.768,10.28 0.189,0.403 0.453,0.992 0.586,1.309 0.133,0.316 1.2,2.839 2.37,5.607 1.171,2.768 2.609,6.197 3.195,7.62 0.587,1.424 1.242,2.977 1.457,3.451 1.632,3.612 1.783,4.265 1.578,6.848 -0.252,3.167 -0.232,3.157 -1.945,1 -1.983,-2.496 -6.621,-8.234 -7.524,-9.308 -0.409,-0.486 -1.132,-1.382 -1.607,-1.991 -0.474,-0.609 -3.424,-4.287 -6.555,-8.174 -3.13,-3.886 -7.077,-8.793 -8.77,-10.903 -1.693,-2.111 -3.213,-3.987 -3.377,-4.17 -1.437,-1.6 -7.412,-9.31 -7.782,-10.04 -0.26,-0.513 -0.637,-1.127 -0.84,-1.364 -0.375,-0.44 -0.828,-1.229 -2.313,-4.026 -0.462,-0.87 -0.906,-1.646 -0.986,-1.725 -0.08,-0.079 -0.438,-0.708 -0.795,-1.397 -0.909,-1.755 -1.626,-3.035 -1.795,-3.204 -0.169,-0.169 -0.886,-1.449 -1.795,-3.204 -0.357,-0.69 -0.715,-1.318 -0.795,-1.397 -0.081,-0.079 -0.522,-0.856 -0.98,-1.726 -0.459,-0.869 -1.052,-1.905 -1.319,-2.3 -0.267,-0.395 -0.938,-1.56 -1.492,-2.588 -0.554,-1.028 -1.265,-2.322 -1.579,-2.876 -0.315,-0.553 -0.901,-1.589 -1.303,-2.3 -0.402,-0.712 -1.216,-2.135 -1.808,-3.163 -1.066,-1.849 -2.01,-3.511 -3.102,-5.463 -1.568,-2.802 -1.722,-2.97 -16.448,-17.974 -5.433,-5.535 -10.13,-10.356 -10.439,-10.712 -0.725,-0.836 -0.841,-0.816 -1.061,0.184 m -91.755,22.031 c 0.099,0.474 0.298,1.768 0.443,2.875 0.671,5.109 1.224,9.661 1.398,11.503 0.104,1.107 0.287,2.163 0.405,2.346 0.646,1.002 -0.357,1.325 -2.015,0.649 -0.356,-0.145 -0.938,-0.382 -1.294,-0.528 -1.516,-0.619 -4.717,-1.723 -5.235,-1.804 -0.523,-0.082 -0.557,0.072 -0.491,2.212 0.039,1.266 0.192,6.054 0.339,10.64 l 0.268,8.34 -0.929,0.862 c -5.863,5.442 -9.053,8.415 -9.416,8.771 -0.241,0.237 -1.472,1.402 -2.735,2.588 -5.131,4.82 -7.322,6.926 -7.322,7.04 0,0.066 0.791,1.777 1.757,3.801 7.642,16.002 7.011,14.081 5.824,17.737 -1.452,4.47 -1.789,5.527 -3.268,10.243 -0.818,2.61 -1.719,5.457 -2.003,6.326 -0.283,0.87 -0.805,2.553 -1.159,3.739 -2.872,9.613 -3.095,10.103 -6.896,15.097 -4.339,5.701 -4.793,6.291 -7.205,9.346 -1.186,1.502 -2.538,3.249 -3.004,3.882 -0.466,0.632 -0.982,1.297 -1.146,1.477 -0.164,0.18 -0.781,0.957 -1.372,1.726 -0.591,0.769 -2.564,3.339 -4.384,5.711 -1.821,2.373 -3.666,4.766 -4.101,5.32 -2.17,2.767 -10.012,12.889 -12.142,15.672 -1.331,1.74 -2.492,3.228 -2.581,3.307 -0.221,0.198 -3.597,4.659 -3.862,5.104 -0.171,0.286 2.454,0.36 12.743,0.36 12.366,0 12.957,-0.024 12.957,-0.527 0,-0.289 0.568,-2.262 1.263,-4.385 0.695,-2.122 1.741,-5.412 2.325,-7.31 0.583,-1.897 1.235,-3.968 1.449,-4.601 0.214,-0.632 0.643,-1.991 0.954,-3.019 0.311,-1.028 1.281,-4.134 2.156,-6.901 0.875,-2.768 2.26,-7.168 3.079,-9.778 6.449,-20.569 6.151,-19.746 8.059,-22.286 1.579,-2.103 5.012,-6.581 6.944,-9.058 0.925,-1.186 2.163,-2.786 2.751,-3.555 0.589,-0.769 1.203,-1.545 1.365,-1.725 0.162,-0.18 0.928,-1.169 1.703,-2.197 0.774,-1.028 3.369,-4.392 5.766,-7.476 2.396,-3.084 4.865,-6.272 5.486,-7.085 0.621,-0.812 3.458,-4.484 6.305,-8.159 2.846,-3.676 7.542,-9.74 10.434,-13.477 2.893,-3.736 5.869,-7.576 6.614,-8.532 0.746,-0.957 2.455,-3.185 3.8,-4.952 1.344,-1.767 2.548,-3.216 2.675,-3.221 0.222,-0.009 -1.569,3.479 -2.177,4.239 -0.161,0.202 -0.224,0.435 -0.141,0.518 0.131,0.131 2.645,-4.188 4.065,-6.984 0.467,-0.917 0.462,-0.937 -0.826,-3.115 -0.713,-1.205 -1.296,-2.258 -1.296,-2.339 0,-0.081 -0.24,-0.491 -0.535,-0.911 -0.294,-0.419 -0.922,-1.505 -1.396,-2.412 -0.647,-1.239 -2.907,-3.746 -9.076,-10.065 -4.519,-4.628 -9.854,-10.098 -11.857,-12.154 -3.066,-3.147 -3.614,-3.601 -3.463,-2.875 m 23.277,42.631 c -0.425,0.751 -0.948,1.652 -1.162,2.003 -0.435,0.712 -0.523,1.206 -0.14,0.786 0.411,-0.451 2.401,-4.155 2.232,-4.155 -0.086,0 -0.504,0.615 -0.93,1.366 m -2.194,3.882 c -0.232,0.356 -0.641,1.1 -0.91,1.653 -0.675,1.394 0.207,0.322 1.007,-1.222 0.617,-1.192 0.561,-1.441 -0.097,-0.431 m -3.065,5.422 c -0.811,1.456 -1.418,2.703 -1.35,2.771 0.068,0.068 0.281,-0.179 0.474,-0.548 0.982,-1.879 2.105,-3.875 2.363,-4.201 0.16,-0.202 0.222,-0.435 0.138,-0.519 -0.083,-0.083 -0.815,1.04 -1.625,2.497 m -2.427,4.355 c -0.383,0.672 -1.212,2.128 -1.843,3.235 -0.63,1.107 -1.301,2.337 -1.491,2.732 l -0.346,0.719 0.588,-0.719 c 0.323,-0.395 0.591,-0.81 0.594,-0.922 0.004,-0.112 0.382,-0.84 0.841,-1.618 1.557,-2.641 2.634,-4.649 2.493,-4.649 -0.077,0 -0.453,0.55 -0.836,1.222 m -4.025,7.045 c -1.171,1.955 -3.678,6.686 -3.543,6.686 0.076,0 0.943,-1.456 1.928,-3.235 0.985,-1.779 1.845,-3.332 1.912,-3.451 0.066,-0.118 0.055,-0.215 -0.024,-0.215 -0.079,0 -0.202,0.097 -0.273,0.215 m -4.329,7.683 c -0.255,0.389 -0.464,0.78 -0.464,0.868 0,0.088 -0.323,0.672 -0.719,1.298 -0.704,1.116 -0.963,1.821 -0.47,1.28 0.381,-0.417 2.408,-4.155 2.253,-4.155 -0.074,0 -0.344,0.319 -0.6,0.709 m -2.588,4.601 c -0.255,0.389 -0.464,0.78 -0.464,0.868 0,0.088 -0.324,0.672 -0.719,1.298 -0.704,1.116 -0.963,1.821 -0.47,1.28 0.381,-0.417 2.408,-4.155 2.253,-4.155 -0.074,0 -0.344,0.319 -0.6,0.709 m -2.588,4.601 c -0.255,0.389 -0.464,0.78 -0.464,0.868 0,0.088 -0.333,0.687 -0.74,1.331 -0.407,0.645 -0.676,1.236 -0.598,1.313 0.078,0.078 0.299,-0.161 0.492,-0.53 0.193,-0.37 0.725,-1.351 1.182,-2.181 0.863,-1.567 0.938,-2.037 0.128,-0.801 m -2.545,4.539 c -0.232,0.356 -0.641,1.1 -0.91,1.653 -0.675,1.393 0.207,0.322 1.006,-1.222 0.618,-1.192 0.562,-1.441 -0.096,-0.431 m -2.52,4.214 c 0,0.143 -0.453,1.061 -1.007,2.04 -1.012,1.792 -1.34,2.627 -0.616,1.574 0.963,-1.403 2.187,-3.874 1.919,-3.874 -0.163,0 -0.296,0.117 -0.296,0.26 m -3.139,5.783 c -0.488,0.793 -0.887,1.501 -0.887,1.573 0,0.072 -0.582,1.116 -1.294,2.32 -0.712,1.204 -1.291,2.275 -1.288,2.381 0.009,0.246 1.129,-1.179 1.138,-1.446 0.003,-0.11 0.437,-0.952 0.964,-1.869 2.266,-3.949 2.511,-4.401 2.386,-4.401 -0.072,0 -0.531,0.649 -1.019,1.442 m -4.276,7.544 c -0.308,0.514 -1.017,1.781 -1.576,2.815 -0.559,1.034 -1.418,2.56 -1.908,3.391 -0.49,0.832 -0.891,1.573 -0.891,1.649 0,0.075 -0.302,0.619 -0.67,1.209 -1.06,1.696 -2.877,5.128 -2.547,4.811 0.255,-0.245 3.271,-5.518 7.362,-12.868 1.09,-1.958 1.269,-2.739 0.23,-1.007 m -9.522,16.924 c -0.81,1.457 -1.422,2.7 -1.359,2.762 0.063,0.063 0.777,-1.077 1.588,-2.534 0.81,-1.456 1.422,-2.699 1.359,-2.762 -0.063,-0.063 -0.777,1.078 -1.588,2.534 m -2.504,4.5 c -0.426,0.751 -0.949,1.652 -1.162,2.002 -0.435,0.713 -0.523,1.207 -0.14,0.787 0.411,-0.451 2.401,-4.155 2.232,-4.155 -0.086,0 -0.505,0.614 -0.93,1.366 m -2.194,3.882 c -0.66,1.012 -1.468,2.692 -1.142,2.372 0.364,-0.355 1.849,-3.019 1.683,-3.019 -0.066,0 -0.309,0.291 -0.541,0.647 m -2.056,3.512 c -0.255,0.39 -0.464,0.773 -0.464,0.852 0,0.078 -0.906,1.724 -2.013,3.656 -1.107,1.933 -2.01,3.587 -2.007,3.678 0.009,0.228 1.13,-1.227 1.138,-1.477 0.003,-0.112 0.411,-0.888 0.905,-1.725 2.265,-3.834 3.975,-7.324 2.441,-4.984 m -4.873,8.709 c -0.176,0.294 -1.058,1.882 -2.196,3.954 -0.522,0.949 -1.079,1.89 -1.239,2.092 -0.159,0.201 -0.222,0.435 -0.139,0.518 0.084,0.083 0.961,-1.311 1.951,-3.098 0.989,-1.788 1.853,-3.347 1.919,-3.466 0.066,-0.118 0.056,-0.216 -0.023,-0.216 -0.079,0 -0.202,0.098 -0.273,0.216 M 98.418,78.9 c -0.255,0.39 -0.464,0.781 -0.464,0.869 0,0.088 -0.324,0.672 -0.719,1.298 -0.705,1.116 -0.963,1.821 -0.47,1.28 0.38,-0.417 2.407,-4.155 2.253,-4.155 -0.075,0 -0.345,0.319 -0.6,0.708 m -2.611,4.636 c -0.268,0.41 -0.438,0.794 -0.377,0.854 0.06,0.061 0.337,-0.274 0.614,-0.744 0.62,-1.049 0.435,-1.135 -0.237,-0.11 m -1.287,2.312 c -0.339,0.574 -0.555,1.104 -0.48,1.178 0.074,0.075 0.406,-0.394 0.736,-1.042 0.744,-1.458 0.576,-1.547 -0.256,-0.136 m -0.976,1.761 c -0.715,1.19 -1.636,3.03 -1.404,2.804 0.385,-0.373 1.848,-3.019 1.67,-3.019 -0.075,0 -0.194,0.097 -0.266,0.215 m -2.849,5.033 c -0.642,0.983 -1.758,3.274 -1.435,2.947 0.361,-0.365 2.138,-3.594 1.978,-3.594 -0.066,0 -0.31,0.291 -0.543,0.647"
             style="fill:url(#linearGradient5401);fill-rule:evenodd;paint-order:stroke fill markers"
             id="path170"
             inkscape:connector-curvature="0" />
          <path
             d="m 213.71,-124.96 c -1.45,2.39 -2.158,3.628 -2.158,3.771 0,0.091 -0.239,0.51 -0.532,0.93 -0.292,0.42 -1.216,2.057 -2.054,3.639 -0.837,1.581 -1.619,3.005 -1.738,3.163 -0.119,0.158 -0.472,0.74 -0.785,1.294 -3.381,5.979 -10.981,19.471 -11.662,20.704 -0.481,0.87 -2.339,4.144 -4.129,7.276 -1.791,3.131 -3.255,5.754 -3.255,5.829 0,0.074 -0.302,0.617 -0.671,1.207 -0.369,0.59 -1.062,1.785 -1.54,2.655 -0.479,0.87 -2.552,4.558 -4.607,8.195 -2.055,3.638 -4.259,7.661 -4.897,8.94 -0.638,1.279 -1.507,2.877 -1.932,3.55 -0.425,0.673 -0.689,1.307 -0.587,1.409 0.184,0.184 0.522,-0.166 3.594,-3.719 0.87,-1.006 2.938,-3.385 4.597,-5.286 1.658,-1.901 3.297,-3.779 3.641,-4.175 0.345,-0.395 1.641,-1.899 2.88,-3.342 3.448,-4.013 7.606,-8.781 8.497,-9.742 0.439,-0.474 0.8,-0.96 0.8,-1.078 0.001,-0.119 0.118,-0.216 0.26,-0.216 0.218,0 2.33,4.03 2.33,4.447 0,0.077 0.371,0.952 0.824,1.944 0.936,2.047 1.519,3.353 3.054,6.837 0.593,1.344 1.515,3.394 2.05,4.555 0.536,1.16 0.973,2.156 0.973,2.211 0,0.056 0.528,1.239 1.174,2.629 1.393,3.003 1.122,3.294 3.416,-3.656 0.964,-2.919 1.864,-5.567 2.001,-5.883 0.137,-0.316 0.61,-1.74 1.052,-3.163 0.442,-1.424 0.909,-2.711 1.037,-2.861 0.129,-0.151 0.239,-0.539 0.244,-0.863 0.01,-0.622 0.751,-1.795 0.985,-1.56 0.181,0.181 3.201,5.932 5.089,9.69 1.819,3.623 1.805,3.644 2.227,-3.256 0.185,-3.005 0.407,-6.046 0.494,-6.758 0.194,-1.58 0.654,-8.262 0.851,-12.365 0.174,-3.617 0.302,-4.313 0.794,-4.313 0.312,0 4.865,4.576 17.588,17.681 0.949,0.978 3.537,3.642 5.751,5.921 2.215,2.279 3.629,3.627 3.144,2.995 -1.001,-1.301 -3.124,-4.839 -5.134,-8.551 l -1.361,-2.514 c 0.31459,-0.42997 -0.3921,-0.9929 -0.639,-1.465 -0.354,-0.679 -1.238,-2.259 -2.398,-4.29 -0.649,-1.135 -10.405,-18.421 -11.524,-20.417 -2.146,-3.83 -4.348,-7.74 -4.858,-8.627 -1.019,-1.772 -4.294,-7.572 -5.116,-9.058 -0.437,-0.791 -1.241,-2.214 -1.787,-3.163 l -0.992,-1.726 -1.5805,-2.962 c -0.94764,-1.776 -3.1075,3.039 -3.4105,3.537 m -112.87,64.271 c -1.676,2.943 -7.682,14.141 -8.098,15.097 -0.206,0.474 -0.453,0.927 -0.548,1.006 -0.175,0.146 -2.076,3.651 -3.976,7.333 -0.571,1.107 -1.119,2.078 -1.216,2.157 -0.097,0.079 -0.276,0.46 -0.397,0.847 -0.241,0.773 0.999,-0.499 4.749,-4.873 1.153,-1.344 2.84,-3.286 3.75,-4.314 0.91,-1.028 2.718,-3.098 4.018,-4.601 1.3,-1.502 2.706,-3.12 3.125,-3.594 0.419,-0.475 1.972,-2.254 3.45,-3.954 1.479,-1.7 2.794,-3.091 2.922,-3.091 0.338,0 4.872,7.097 4.872,7.627 0,0.072 0.582,1.039 1.294,2.15 0.712,1.11 1.294,2.077 1.294,2.148 0,0.071 0.504,0.927 1.121,1.901 l 1.12,1.773 0.461,-0.755 c 1.148,-1.878 1.37,-2.254 2.091,-3.548 0.421,-0.756 0.987,-1.764 1.258,-2.238 0.271,-0.475 0.97,-1.704 1.553,-2.732 1.64,-2.888 2.21,-2.993 6.343,-1.163 0.316,0.14 1.546,0.605 2.732,1.035 1.186,0.429 2.279,0.892 2.43,1.029 0.984,0.897 0.993,1.054 -0.734,-12.404 -0.662,-5.166 -0.718,-6.038 -0.382,-6.038 0.182,0 5.286,5.048 11.342,11.219 6.057,6.17 11.069,11.162 11.138,11.092 0.115,-0.114 -0.566,-1.452 -3.96,-7.789 -0.594,-1.108 -1.594,-2.984 -2.224,-4.17 -2.406,-4.532 -3.007,-5.616 -3.259,-5.881 -0.399,-0.786 -2.712,-4.704 -5.579,-9.935 -0.823,-1.503 -1.989,-3.638 -2.59,-4.745 -0.601,-1.107 -1.413,-2.595 -1.805,-3.307 -0.392,-0.712 -1.425,-2.653 -2.294,-4.313 -0.869,-1.661 -1.759,-3.306 -1.976,-3.657 -0.57,-0.919 -2.294,-4.077 -5.067,-9.284 -2.51,-4.714 -2.358,-4.627 -3.665,-2.084 -0.549,1.067 -1.339,2.523 -1.755,3.235 -0.417,0.711 -1.273,2.264 -1.903,3.45 -1.713,3.225 -2.976,5.524 -3.464,6.305 -0.24,0.384 -0.951,1.678 -1.579,2.876 -0.629,1.198 -1.373,2.566 -1.653,3.041 -0.281,0.474 -1.025,1.843 -1.653,3.041 -0.629,1.198 -1.34,2.492 -1.58,2.875 -0.5,0.801 -1.683,2.969 -3.754,6.88 -1.819,3.437 -5.389,10.353 -5.952,10.353 m 206.25,-29.26 c -0.342,0.672 -1.294,2.452 -2.114,3.954 -0.821,1.503 -2.077,3.832 -2.791,5.176 -0.715,1.345 -1.375,2.509 -1.467,2.588 -0.092,0.079 -0.361,0.531 -0.598,1.005 -0.397,0.792 -1.768,3.326 -3.735,6.903 -0.435,0.791 -1.336,2.473 -2.003,3.739 -0.667,1.265 -1.313,2.43 -1.434,2.588 -0.122,0.158 -0.91,1.581 -1.751,3.163 -0.84,1.581 -1.785,3.328 -2.099,3.882 -0.314,0.554 -0.732,1.31 -0.93,1.681 l -0.359,0.675 -0.345,0.176 -2.252,4.126 c -1.238,2.269 -2.872,5.29 -3.631,6.714 -0.758,1.423 -1.473,2.717 -1.589,2.875 -0.195,0.266 -1.16,2.07 -4.54,8.483 -0.708,1.345 -1.415,2.605 -1.57,2.8 -0.323,0.409 -0.035,1.889 0.341,1.75 0.213,-0.079 7.3,-8.125 15.347,-17.426 1.27,-1.467 2.448,-2.621 2.619,-2.564 0.207,0.069 0.359,2.553 0.455,7.412 0.092,4.673 0.247,7.278 0.431,7.223 0.158,-0.048 2.396,-1.73 4.973,-3.738 2.577,-2.009 4.846,-3.639 5.041,-3.623 0.317,0.026 5.297,3.412 5.658,3.846 0.25,0.301 5.229,3.502 5.297,3.406 0.245,-0.348 1.878,-3.283 4.016,-7.218 0.582,-1.072 1.314,-2.399 1.624,-2.948 0.311,-0.548 0.836,-1.482 1.166,-2.076 1.202,-2.157 0.651,-2.363 8.792,3.288 4.087,2.837 7.59,5.254 7.786,5.371 0.43,0.258 0.233,-0.351 -0.59,-1.829 -1.844,-3.31 -4.253,-8.117 -4.131,-8.24 0,0 1.6222,1.88 -1.55,-2.242 -0.352,-0.64 -0.926,-1.682 -1.276,-2.315 -0.35,-0.632 -0.994,-1.797 -1.431,-2.588 -0.437,-0.79 -1.021,-1.826 -1.297,-2.3 -0.602,-1.034 -2.452,-4.463 -3.801,-7.045 -0.537,-1.028 -1.18,-2.193 -1.428,-2.588 -0.248,-0.396 -1.065,-1.884 -1.814,-3.307 -1.712,-3.253 -3.012,-5.672 -3.941,-7.333 -0.399,-0.712 -1.282,-2.33 -1.963,-3.595 -0.681,-1.265 -1.835,-3.4 -2.566,-4.745 -0.73,-1.344 -1.515,-2.832 -1.745,-3.307 -1.515,-3.126 -1.978,-3.423 -2.805,-1.797"
             style="fill:#e7f3fe;fill-rule:evenodd;paint-order:stroke fill markers"
             id="path172"
             inkscape:connector-curvature="0" />
        </g>
        <text
           transform="scale(1.0005,0.99955)"
           x="88.082779"
           y="117.52094"
           style="font-size:95.88700104px;line-height:1.25;font-family:Shrikhand;letter-spacing:0px;word-spacing:0px;fill:#e4e4e4;stroke-width:0.99882001"
           xml:space="preserve"
           id="text180"><tspan
             x="88.082779"
             y="117.52094"
             style="font-size:103.87999725px;fill:#e4e4e4;stroke-width:0.99882001"
             id="tspan178"><tspan
               style="font-size:95.88700104px;fill:#e4e4e4"
               id="tspan176">Uinta</tspan></tspan></text>
        <text
           transform="scale(1.0005,0.99955)"
           x="428.70786"
           y="117.52094"
           style="font-size:39.95299911px;line-height:1.25;font-family:Shrikhand;letter-spacing:0px;word-spacing:0px;fill:#000000;stroke-width:0.99882001"
           xml:space="preserve"
           id="text184"><tspan
             x="428.70786"
             y="117.52094"
             style="font-size:95.88700104px;line-height:1.25;fill:#e4e4e4;stroke-width:0.99882001"
             id="tspan182">Appliance</tspan></text>
        <text
           transform="scale(1.0005,0.99955)"
           x="981.68555"
           y="117.52094"
           style="font-size:39.95299911px;line-height:1.25;font-family:Shrikhand;letter-spacing:0px;word-spacing:0px;fill:#000000;stroke-width:0.99882001"
           xml:space="preserve"
           id="text188"><tspan
             x="981.68555"
             y="117.52094"
             style="font-size:95.88700104px;fill:#e4e4e4;stroke-width:0.99882001"
             id="tspan186">Service</tspan></text>
      </g>
    </g>
  </g>
</svg>
